<svg width="49" height="48" viewBox="0 0 49 48" fill="none" xmlns="http://www.w3.org/2000/svg">
<path d="M27.694 20.8146V5.51626C33.8956 5.45218 39.5222 9.13861 41.94 14.8498C44.3578 20.5611 43.0882 27.1669 38.7256 31.5751C34.363 35.9832 27.7707 37.3213 22.0347 34.963C16.2986 32.6046 12.554 27.0166 12.5536 20.8146V14.7581C12.5536 13.1746 11.27 11.8909 9.68646 11.8909V11.8909C8.92568 11.8904 8.19589 12.1922 7.65775 12.73C7.11961 13.2678 6.81726 13.9973 6.81726 14.7581V15.7145" stroke="white" stroke-width="1.5" stroke-linecap="round" stroke-linejoin="round"/>
<path d="M14.1483 20.8147H42.8323" stroke="white" stroke-width="1.5" stroke-linecap="round" stroke-linejoin="round"/>
<path d="M36.7738 41.1592C36.498 41.1614 36.2761 41.3863 36.2776 41.662C36.279 41.9377 36.5033 42.1603 36.7791 42.1596C37.0548 42.1588 37.278 41.9351 37.278 41.6594C37.2774 41.5262 37.224 41.3986 37.1295 41.3048C37.0349 41.211 36.907 41.1586 36.7738 41.1592" stroke="white" stroke-width="1.5" stroke-linecap="round" stroke-linejoin="round"/>
<path d="M18.6082 41.1631C18.3322 41.1642 18.1092 41.3887 18.1099 41.6647C18.1107 41.9407 18.3348 42.1639 18.6108 42.1635C18.8868 42.1632 19.1104 41.9393 19.1104 41.6633C19.1109 41.5302 19.0581 41.4023 18.9637 41.3083C18.8694 41.2143 18.7413 41.162 18.6082 41.1631" stroke="white" stroke-width="1.5" stroke-linecap="round" stroke-linejoin="round"/>
</svg>
