<svg width="48" height="48" viewBox="0 0 48 48" fill="none" xmlns="http://www.w3.org/2000/svg">
<path d="M24 5.99243V11.5407C24.0026 11.7169 23.9103 11.8809 23.7585 11.9703C23.6066 12.0597 23.4185 12.0607 23.2657 11.9729C21.8021 11.1372 19.9501 11.4698 18.8688 12.7626C17.7875 14.0554 17.7875 15.937 18.8688 17.2298C19.9501 18.5226 21.8021 18.8552 23.2657 18.0194C23.4185 17.9317 23.6066 17.9327 23.7585 18.0221C23.9103 18.1114 24.0026 18.2754 24 18.4516V24H29.5483C29.7245 24.0025 29.8885 23.9103 29.9779 23.7584C30.0673 23.6066 30.0683 23.4184 29.9805 23.2656C29.1448 21.8021 29.4774 19.95 30.7701 18.8688C32.0629 17.7875 33.9446 17.7875 35.2374 18.8688C36.5301 19.95 36.8627 21.8021 36.027 23.2656C35.9392 23.4184 35.9402 23.6066 36.0296 23.7584C36.119 23.9103 36.283 24.0025 36.4592 24H42.0075" stroke="white" stroke-width="1.5" stroke-linecap="round" stroke-linejoin="round"/>
<path d="M23.9999 42.0075V36.4592C23.9974 36.283 24.0896 36.119 24.2414 36.0296C24.3933 35.9402 24.5814 35.9392 24.7342 36.027C26.1978 36.8627 28.0498 36.5301 29.1311 35.2373C30.2124 33.9446 30.2124 32.0629 29.1311 30.7701C28.0498 29.4773 26.1978 29.1447 24.7342 29.9805C24.5814 30.0682 24.3933 30.0672 24.2414 29.9779C24.0896 29.8885 23.9974 29.7245 23.9999 29.5483V23.9999H18.4516C18.2754 23.9974 18.1114 24.0896 18.0221 24.2415C17.9327 24.3933 17.9317 24.5815 18.0194 24.7343C18.8552 26.1978 18.5226 28.0499 17.2298 29.1312C15.937 30.2124 14.0554 30.2124 12.7626 29.1312C11.4698 28.0499 11.1372 26.1978 11.9729 24.7343C12.0607 24.5815 12.0597 24.3933 11.9703 24.2415C11.8809 24.0896 11.7169 23.9974 11.5407 23.9999H5.99243" stroke="white" stroke-width="1.5" stroke-linecap="round" stroke-linejoin="round"/>
<rect x="5.99243" y="5.99243" width="36.015" height="36.015" rx="4.034" stroke="white" stroke-width="1.5" stroke-linecap="round" stroke-linejoin="round"/>
</svg>
