<svg width="49" height="48" viewBox="0 0 49 48" fill="none" xmlns="http://www.w3.org/2000/svg">
<path d="M32.448 21.7051C31.8898 22.4336 31.0306 22.8688 30.113 22.8876C29.1973 22.8636 28.3408 22.4295 27.78 21.7051" stroke="white" stroke-width="1.5" stroke-linecap="round" stroke-linejoin="round"/>
<path d="M21.5534 21.7051C20.9957 22.4331 20.1374 22.8682 19.2205 22.8876C18.3042 22.8636 17.447 22.4295 16.8855 21.7051" stroke="white" stroke-width="1.5" stroke-linecap="round" stroke-linejoin="round"/>
<path fill-rule="evenodd" clip-rule="evenodd" d="M24.6668 40.673C32.1757 40.6693 38.755 35.6449 40.7355 28.4018C42.979 28.1574 44.6784 26.2628 44.6784 24.006C44.6784 21.7493 42.979 19.8546 40.7355 19.6102C38.7601 12.3632 32.1782 7.33521 24.6668 7.33521C17.1553 7.33521 10.5735 12.3632 8.59808 19.6102C6.3546 19.8546 4.65515 21.7493 4.65515 24.006C4.65515 26.2628 6.3546 28.1574 8.59808 28.4018C10.5785 35.6449 17.1578 40.6693 24.6668 40.673Z" stroke="white" stroke-width="1.5" stroke-linecap="round" stroke-linejoin="round"/>
<path d="M29.1125 30.0165C26.5652 32.2388 22.7682 32.2388 20.2208 30.0165" stroke="white" stroke-width="1.5" stroke-linecap="round" stroke-linejoin="round"/>
<path d="M22.4438 14.378C23.0896 14.849 23.8674 15.1046 24.6668 15.1083C26.7811 15.0603 28.4702 13.3325 28.4702 11.2176C28.4702 9.10274 26.7811 7.37498 24.6668 7.32703" stroke="white" stroke-width="1.5" stroke-linecap="round" stroke-linejoin="round"/>
</svg>
