<svg width="48" height="48" viewBox="0 0 48 48" fill="none" xmlns="http://www.w3.org/2000/svg">
<path fill-rule="evenodd" clip-rule="evenodd" d="M28.3495 16.5118L31.489 19.6512C33.1555 21.3162 34.0921 23.5752 34.0926 25.931C34.0932 28.2867 33.1576 30.5461 31.4918 32.2118L23.6439 40.0598C21.0435 42.6602 16.8274 42.6602 14.227 40.0598L7.94525 33.778C6.69401 32.5298 5.99035 30.8353 5.98929 29.0679C5.98822 27.3005 6.68986 25.6052 7.9396 24.3554L15.7875 16.5075C17.4535 14.8415 19.7133 13.9059 22.0694 13.9067C24.4255 13.9075 26.6847 14.8447 28.3495 16.5118Z" stroke="white" stroke-width="1.5" stroke-linecap="round" stroke-linejoin="round"/>
<path d="M31.7753 29.3562L29.2102 26.7932" stroke="white" stroke-width="1.5" stroke-linecap="round" stroke-linejoin="round"/>
<path d="M28.3478 35.3487L24.5022 31.5011" stroke="white" stroke-width="1.5" stroke-linecap="round" stroke-linejoin="round"/>
<path d="M23.6398 40.0567L19.7922 36.2111" stroke="white" stroke-width="1.5" stroke-linecap="round" stroke-linejoin="round"/>
<path fill-rule="evenodd" clip-rule="evenodd" d="M40.905 7.09497V7.09497C40.1237 6.31317 39.038 5.91479 37.9364 6.00575C36.8349 6.09671 35.8292 6.66779 35.1867 7.56717L34.6044 8.39351C34.4144 8.65884 34.1173 8.82717 33.792 8.85376C33.4668 8.88035 33.1463 8.76252 32.9157 8.53157V8.53157C32.1203 7.73445 31.0405 7.28648 29.9145 7.28648C28.7884 7.28648 27.7086 7.73445 26.9132 8.53157L25.2005 10.2343C24.3342 11.1014 24.3342 12.5064 25.2005 13.3736L34.6264 22.7995C35.4936 23.6658 36.8986 23.6658 37.7657 22.7995L39.4784 21.0868C40.2756 20.2914 40.7235 19.2116 40.7235 18.0855C40.7235 16.9595 40.2756 15.8797 39.4784 15.0843V15.0843C39.2475 14.8537 39.1297 14.5332 39.1563 14.208C39.1828 13.8827 39.3512 13.5856 39.6165 13.3956L40.4328 12.8134C41.3322 12.1709 41.9033 11.1651 41.9943 10.0636C42.0852 8.96205 41.6868 7.87629 40.905 7.09497Z" stroke="white" stroke-width="1.5" stroke-linecap="round" stroke-linejoin="round"/>
</svg>
