<svg width="49" height="48" viewBox="0 0 49 48" fill="none" xmlns="http://www.w3.org/2000/svg">
<path fill-rule="evenodd" clip-rule="evenodd" d="M16.3301 7.99331L18.9312 4.74195C19.311 4.26748 19.886 3.99141 20.4938 3.99164H28.175C28.7828 3.99141 29.3578 4.26748 29.7377 4.74195L32.3367 7.99331V7.99331V9.99414C32.3367 11.0992 31.4409 11.995 30.3359 11.995H18.3309C17.2259 11.995 16.3301 11.0992 16.3301 9.99414V7.99331Z" stroke="white" stroke-width="1.5" stroke-linecap="round" stroke-linejoin="round"/>
<path d="M19.6654 18.6638L16.3301 21.9991L14.3292 19.9983" stroke="white" stroke-width="1.5" stroke-linecap="round" stroke-linejoin="round"/>
<path d="M26.3342 19.9983H32.3367" stroke="white" stroke-width="1.5" stroke-linecap="round" stroke-linejoin="round"/>
<path d="M22.3325 40.0067H12.3283C10.1183 40.0067 8.32666 38.2151 8.32666 36.005V11.995C8.32666 9.78495 10.1183 7.99335 12.3283 7.99335H16.33" stroke="white" stroke-width="1.5" stroke-linecap="round" stroke-linejoin="round"/>
<path fill-rule="evenodd" clip-rule="evenodd" d="M36.8266 40.9771C36.1665 41.6372 35.2711 42.0079 34.3375 42.0075V42.0075C33.404 42.0079 32.5085 41.6372 31.8485 40.9771L27.6307 36.7593C25.9617 35.0206 25.9899 32.2663 27.6941 30.5621C29.3983 28.8579 32.1526 28.8297 33.8913 30.4987L34.3375 30.9449L34.7837 30.4987C35.8941 29.3419 37.5432 28.8758 39.0949 29.2803C40.6465 29.6847 41.8583 30.8965 42.2627 32.4482C42.6672 33.9998 42.2011 35.6489 41.0443 36.7593L36.8266 40.9771Z" stroke="white" stroke-width="1.5" stroke-linecap="round" stroke-linejoin="round"/>
<path d="M32.3367 7.99335H36.3383C38.5484 7.99335 40.34 9.78495 40.34 11.995V24" stroke="white" stroke-width="1.5" stroke-linecap="round" stroke-linejoin="round"/>
<path d="M14.3292 30.0025H18.3309" stroke="white" stroke-width="1.5" stroke-linecap="round" stroke-linejoin="round"/>
</svg>
