<svg width="74" height="72" viewBox="0 0 74 72" fill="none" xmlns="http://www.w3.org/2000/svg">
<circle cx="31" cy="31" r="31" fill="#FCF2F6"/>
<path d="M55.0781 41.3225C54.427 42.1725 53.4245 42.6801 52.354 42.702C51.2856 42.6741 50.2864 42.1676 49.6322 41.3225" stroke="#E493B3" stroke-width="2.5" stroke-linecap="round" stroke-linejoin="round"/>
<path d="M42.3678 41.3225C41.7172 42.1718 40.7157 42.6794 39.646 42.702C38.577 42.6741 37.577 42.1677 36.9219 41.3225" stroke="#E493B3" stroke-width="2.5" stroke-linecap="round" stroke-linejoin="round"/>
<path fill-rule="evenodd" clip-rule="evenodd" d="M46 63.4517C54.7604 63.4474 62.4363 57.5856 64.7468 49.1354C67.3642 48.8502 69.3469 46.6398 69.3469 44.0069C69.3469 41.374 67.3642 39.1636 64.7468 38.8784C62.4422 30.4236 54.7633 24.5576 46 24.5576C37.2367 24.5576 29.5578 30.4236 27.2532 38.8784C24.6358 39.1636 22.6531 41.374 22.6531 44.0069C22.6531 46.6398 24.6358 48.8502 27.2532 49.1354C29.5637 57.5856 37.2396 63.4474 46 63.4517Z" stroke="#E493B3" stroke-width="2.5" stroke-linecap="round" stroke-linejoin="round"/>
<path d="M51.1868 51.0192C48.2149 53.6119 43.7851 53.6119 40.8132 51.0192" stroke="#E493B3" stroke-width="2.5" stroke-linecap="round" stroke-linejoin="round"/>
<path d="M43.4066 32.7743C44.16 33.3239 45.0675 33.622 46 33.6263C48.4667 33.5704 50.4373 31.5547 50.4373 29.0873C50.4373 26.6199 48.4667 24.6042 46 24.5482" stroke="#E493B3" stroke-width="2.5" stroke-linecap="round" stroke-linejoin="round"/>
</svg>
