<svg width="117" height="116" viewBox="0 0 117 116" fill="none" xmlns="http://www.w3.org/2000/svg">
<circle cx="58.5" cy="58" r="58" fill="#8E7AB5"/>
<path fill-rule="evenodd" clip-rule="evenodd" d="M56.6166 60.3833C54.1791 57.9458 52.3416 55.2167 51.1208 52.4479C50.8625 51.8625 51.0146 51.1771 51.4666 50.725L53.1729 49.0208C54.5708 47.6229 54.5708 45.6458 53.35 44.425L50.9041 41.9792C49.2771 40.3521 46.6396 40.3521 45.0125 41.9792L43.6541 43.3375C42.1104 44.8812 41.4666 47.1083 41.8833 49.3167C42.9125 54.7604 46.075 60.7208 51.1771 65.8229C56.2791 70.925 62.2396 74.0875 67.6833 75.1167C69.8916 75.5333 72.1187 74.8896 73.6625 73.3458L75.0187 71.9896C76.6458 70.3625 76.6458 67.725 75.0187 66.0979L72.575 63.6542C71.3541 62.4333 69.375 62.4333 68.1562 63.6542L66.275 65.5375C65.8229 65.9896 65.1375 66.1417 64.5521 65.8833C61.7833 64.6604 59.0541 62.8208 56.6166 60.3833Z" stroke="white" stroke-width="1.5" stroke-linecap="round" stroke-linejoin="round"/>
</svg>
