<svg width="74" height="72" viewBox="0 0 74 72" fill="none" xmlns="http://www.w3.org/2000/svg">
<circle cx="31" cy="31" r="31" fill="#FCF2F6"/>
<path d="M46 22.9912V29.4642C46.003 29.6698 45.8954 29.8611 45.7182 29.9654C45.5411 30.0697 45.3216 30.0708 45.1433 29.9685C43.4358 28.9934 41.2751 29.3815 40.0136 30.8897C38.7521 32.398 38.7521 34.5932 40.0136 36.1015C41.2751 37.6097 43.4358 37.9978 45.1433 37.0227C45.3216 36.9203 45.5411 36.9215 45.7182 37.0258C45.8954 37.13 46.003 37.3214 46 37.5269V44H52.473C52.6786 44.0029 52.8699 43.8954 52.9742 43.7182C53.0785 43.541 53.0796 43.3215 52.9772 43.1433C52.0022 41.4358 52.3903 39.2751 53.8985 38.0136C55.4067 36.7521 57.602 36.7521 59.1103 38.0136C60.6185 39.2751 61.0065 41.4358 60.0315 43.1433C59.9291 43.3215 59.9303 43.541 60.0346 43.7182C60.1388 43.8954 60.3302 44.0029 60.5357 44H67.0087" stroke="#E493B3" stroke-width="2.5" stroke-linecap="round" stroke-linejoin="round"/>
<path d="M46 65.0087V58.5357C45.997 58.3302 46.1046 58.1388 46.2818 58.0346C46.4589 57.9303 46.6784 57.9291 46.8567 58.0315C48.5642 59.0065 50.7249 58.6185 51.9864 57.1102C53.2479 55.602 53.2479 53.4067 51.9864 51.8985C50.7249 50.3903 48.5642 50.0022 46.8567 50.9772C46.6784 51.0796 46.4589 51.0785 46.2818 50.9742C46.1046 50.8699 45.997 50.6786 46 50.473V43.9999H39.527C39.3214 43.997 39.1301 44.1046 39.0258 44.2818C38.9215 44.4589 38.9204 44.6784 39.0228 44.8567C39.9978 46.5642 39.6097 48.7249 38.1015 49.9864C36.5933 51.2479 34.398 51.2479 32.8897 49.9864C31.3815 48.7249 30.9935 46.5642 31.9685 44.8567C32.0709 44.6784 32.0697 44.4589 31.9654 44.2818C31.8612 44.1046 31.6698 43.997 31.4643 43.9999H24.9912" stroke="#E493B3" stroke-width="2.5" stroke-linecap="round" stroke-linejoin="round"/>
<rect x="24.9912" y="22.9912" width="42.0175" height="42.0175" rx="4.034" stroke="#E493B3" stroke-width="2.5" stroke-linecap="round" stroke-linejoin="round"/>
</svg>
