<svg width="74" height="72" viewBox="0 0 74 72" fill="none" xmlns="http://www.w3.org/2000/svg">
<circle cx="31" cy="31" r="31" fill="#FCF2F6"/>
<path d="M27.3255 60.3401C27.3152 57.874 28.285 55.5049 30.0214 53.7538C31.7579 52.0027 34.1188 51.0132 36.5849 51.0029C36.6108 51.0029 36.6368 51.0029 36.6628 51.0029H42.0576" stroke="#E493B3" stroke-width="2.5" stroke-linecap="round" stroke-linejoin="round"/>
<path fill-rule="evenodd" clip-rule="evenodd" d="M48.3343 54.482C48.4475 56.8178 49.3787 59.0393 50.9651 60.7575C52.2321 62.2292 53.7439 63.4709 55.4339 64.4276C56.9055 65.2486 58.709 65.1955 60.1297 64.2893C61.6615 63.3101 63.0388 62.1082 64.2161 60.7229C65.8317 59.0222 66.8171 56.82 67.0089 54.482C67.0199 53.091 66.4999 51.7483 65.5547 50.7277C64.6464 49.7381 63.368 49.17 62.0248 49.1591C60.3383 49.0411 58.7084 49.7931 57.7037 51.1529L57.6718 51.1998L57.6394 51.1529C56.7252 49.8664 55.2309 49.119 53.6531 49.1591C52.2345 49.135 50.867 49.6882 49.8641 50.6918C48.8613 51.6954 48.3091 53.0634 48.3343 54.482Z" stroke="#E493B3" stroke-width="2.5" stroke-linecap="round" stroke-linejoin="round"/>
<circle cx="46" cy="32.912" r="9.9208" stroke="#E493B3" stroke-width="2.5" stroke-linecap="round" stroke-linejoin="round"/>
</svg>
