<svg width="74" height="72" viewBox="0 0 74 72" fill="none" xmlns="http://www.w3.org/2000/svg">
<circle cx="31" cy="31" r="31" fill="#FCF2F6"/>
<path d="M49.5318 40.2838V22.4357C56.767 22.361 63.3314 26.6618 66.1522 33.3249C68.9729 39.988 67.4918 47.6948 62.4021 52.8377C57.3124 57.9805 49.6214 59.5416 42.9293 56.7902C36.2373 54.0388 31.8685 47.5194 31.8681 40.2838V33.2179C31.8681 31.3704 30.3705 29.8728 28.5231 29.8728V29.8728C27.6355 29.8722 26.7841 30.2243 26.1562 30.8517C25.5284 31.4791 25.1757 32.3303 25.1757 33.2179V34.3337" stroke="#E493B3" stroke-width="2.5" stroke-linecap="round" stroke-linejoin="round"/>
<path d="M33.7286 40.2838H67.1932" stroke="#E493B3" stroke-width="2.5" stroke-linecap="round" stroke-linejoin="round"/>
<path d="M60.1249 64.019C59.8032 64.0216 59.5443 64.284 59.546 64.6057C59.5477 64.9274 59.8094 65.187 60.1311 65.1861C60.4528 65.1853 60.7131 64.9243 60.7131 64.6026C60.7125 64.4472 60.6502 64.2984 60.5399 64.189C60.4296 64.0795 60.2803 64.0184 60.1249 64.019" stroke="#E493B3" stroke-width="2.5" stroke-linecap="round" stroke-linejoin="round"/>
<path d="M38.9317 64.0237C38.6097 64.025 38.3496 64.2868 38.3505 64.6088C38.3513 64.9308 38.6128 65.1913 38.9348 65.1909C39.2568 65.1904 39.5176 64.9293 39.5176 64.6073C39.5183 64.4519 39.4567 64.3028 39.3466 64.1931C39.2365 64.0835 39.0871 64.0225 38.9317 64.0237" stroke="#E493B3" stroke-width="2.5" stroke-linecap="round" stroke-linejoin="round"/>
</svg>
