<svg width="74" height="72" viewBox="0 0 74 72" fill="none" xmlns="http://www.w3.org/2000/svg">
<circle cx="31" cy="31" r="31" fill="#FCF2F6"/>
<path fill-rule="evenodd" clip-rule="evenodd" d="M51.0745 35.2638L54.7371 38.9265C56.6814 40.869 57.7741 43.5045 57.7747 46.2528C57.7753 49.0012 56.6838 51.6372 54.7404 53.5805L45.5845 62.7364C42.5507 65.7703 37.6319 65.7703 34.5981 62.7364L27.2695 55.4078C25.8097 53.9515 24.9887 51.9746 24.9875 49.9126C24.9863 47.8507 25.8048 45.8728 27.2629 44.4147L36.4188 35.2589C38.3624 33.3152 40.9989 32.2237 43.7476 32.2246C46.4964 32.2255 49.1321 33.3188 51.0745 35.2638Z" stroke="#E493B3" stroke-width="2.5" stroke-linecap="round" stroke-linejoin="round"/>
<path d="M55.0711 50.2489L52.0785 47.2587" stroke="#E493B3" stroke-width="2.5" stroke-linecap="round" stroke-linejoin="round"/>
<path d="M51.0724 57.2402L46.5859 52.7513" stroke="#E493B3" stroke-width="2.5" stroke-linecap="round" stroke-linejoin="round"/>
<path d="M45.5798 62.7328L41.091 58.2463" stroke="#E493B3" stroke-width="2.5" stroke-linecap="round" stroke-linejoin="round"/>
<path fill-rule="evenodd" clip-rule="evenodd" d="M65.7225 24.2775V24.2775C64.811 23.3654 63.5443 22.9006 62.2591 23.0067C60.974 23.1128 59.8007 23.7791 59.0511 24.8284L58.3718 25.7924C58.1501 26.102 57.8035 26.2984 57.4241 26.3294C57.0446 26.3604 56.6707 26.2229 56.4017 25.9535V25.9535C55.4737 25.0235 54.2139 24.5009 52.9002 24.5009C51.5865 24.5009 50.3267 25.0235 49.3987 25.9535L47.4006 27.94C46.3899 28.9517 46.3899 30.5909 47.4006 31.6025L58.3975 42.5994C59.4092 43.6101 61.0483 43.6101 62.06 42.5994L64.0582 40.6013C64.9882 39.6733 65.5108 38.4136 65.5108 37.0998C65.5108 35.7861 64.9882 34.5263 64.0582 33.5984V33.5984C63.7887 33.3293 63.6513 32.9554 63.6823 32.576C63.7133 32.1965 63.9097 31.8499 64.2193 31.6282L65.1717 30.9489C66.2209 30.1993 66.8872 29.026 66.9933 27.7409C67.0994 26.4557 66.6346 25.189 65.7225 24.2775Z" stroke="#E493B3" stroke-width="2.5" stroke-linecap="round" stroke-linejoin="round"/>
</svg>
