<svg width="998" height="558" viewBox="0 0 998 558" fill="none" xmlns="http://www.w3.org/2000/svg">
<g opacity="0.5">
<g opacity="0.8">
<path d="M97.3591 1.2753V230.97C97.3591 232.669 99.9994 232.672 99.9994 230.97V1.2753C99.9994 -0.423297 97.3591 -0.426818 97.3591 1.2753Z" fill="#FFEDE4"/>
</g>
<g opacity="0.8">
<path d="M280.675 1.2753V155.725C280.675 157.424 283.315 157.427 283.315 155.725V1.2753C283.315 -0.423297 280.675 -0.426818 280.675 1.2753Z" fill="#FFEDE4"/>
</g>
<g opacity="0.8">
<path d="M382.531 1.2753V428.086C382.531 429.785 385.171 429.788 385.171 428.086V1.2753C385.171 -0.423297 382.531 -0.426818 382.531 1.2753Z" fill="#FFEDE4"/>
</g>
<g opacity="0.8">
<path d="M564.493 1.2753V322.056C564.493 323.755 567.134 323.758 567.134 322.056V1.2753C567.134 -0.423297 564.493 -0.426818 564.493 1.2753Z" fill="#FFEDE4"/>
</g>
<g opacity="0.8">
<path d="M753.534 1.2753V138.564C753.534 140.262 756.175 140.266 756.175 138.564V1.2753C756.175 -0.423297 753.534 -0.426818 753.534 1.2753Z" fill="#FFEDE4"/>
</g>
<g opacity="0.8">
<path d="M936.428 1.2753V299.614C936.428 301.313 939.068 301.316 939.068 299.614V1.2753C939.068 -0.423297 936.428 -0.426818 936.428 1.2753Z" fill="#FFEDE4"/>
</g>
<g opacity="0.8">
<path d="M705.962 1.2753V406.541C705.962 408.24 708.602 408.243 708.602 406.541V1.2753C708.602 -0.423297 705.962 -0.426818 705.962 1.2753Z" fill="#FFEDE4"/>
</g>
<path d="M970.585 248.04L909.574 273.809C917.46 296.265 914.883 321.152 908.567 344.1C906.762 350.658 904.648 357.21 904.243 364C903.838 370.79 905.362 378.013 909.985 383.004C914.462 387.835 921.223 389.935 927.788 390.467C940.241 391.475 953.209 387.23 962.04 378.392C973.281 367.143 976.672 350.522 983.342 336.086C989.508 322.739 999.044 309.386 996.724 294.868C993.871 277.02 974.142 265.761 970.585 248.04Z" fill="#FFEDE4"/>
<path d="M970.585 248.04L909.574 273.809C917.46 296.265 914.883 321.152 908.567 344.1C906.891 350.186 904.953 356.267 904.358 362.538C908.113 361.472 912.049 360.978 916.303 361.277C923.845 361.806 931.067 363.693 937.903 366.938C945.559 370.574 952.239 375.809 957.63 382.162C959.185 381.013 960.668 379.765 962.04 378.391C973.281 367.142 976.671 350.521 983.342 336.085C989.508 322.738 999.043 309.385 996.724 294.867C993.871 277.02 974.142 265.761 970.585 248.04Z" fill="#FFEDE4"/>
<path d="M937.903 366.938C931.067 363.693 923.845 361.806 916.303 361.277C912.049 360.978 908.114 361.472 904.358 362.538C904.312 363.024 904.272 363.511 904.243 364C903.838 370.79 905.362 378.014 909.985 383.004C914.462 387.836 921.223 389.935 927.788 390.467C938.305 391.319 949.181 388.409 957.631 382.163C952.239 375.809 945.559 370.574 937.903 366.938Z" fill="#FFEDE4"/>
<path d="M968.748 317.294C963.594 311.07 958.76 303.429 958.874 295.033C959.007 285.252 966.028 278.913 972.287 272.299C974.541 269.916 976.735 267.434 979.011 265.05C975.151 259.805 971.848 254.33 970.585 248.039L909.574 273.808C917.46 296.265 914.883 321.151 908.567 344.099C906.762 350.657 904.648 357.209 904.243 363.999C903.838 370.789 905.362 378.013 909.985 383.003C914.462 387.835 921.223 389.934 927.788 390.466C940.241 391.475 953.209 387.229 962.04 378.391C973.281 367.143 976.672 350.521 983.342 336.085C983.864 334.955 984.411 333.825 984.973 332.694C978.971 328.195 973.565 323.11 968.748 317.294Z" fill="#FFEDE4"/>
<path d="M958.874 295.034C958.76 303.429 963.594 311.072 968.748 317.295C973.565 323.11 978.972 328.197 984.972 332.696C991.039 320.47 998.847 308.158 996.724 294.869C994.884 283.356 986.025 274.584 979.011 265.052C976.735 267.435 974.54 269.918 972.287 272.3C966.028 278.914 959.007 285.253 958.874 295.034Z" fill="#FFEDE4"/>
<path d="M972.519 254.179C965.416 261.483 957.407 267.923 948.729 273.244C937.774 279.962 925.62 285.9 912.628 284.999C916.513 304.352 913.851 324.904 908.567 344.1C906.762 350.658 904.648 357.21 904.243 364C903.838 370.79 905.362 378.014 909.985 383.004C914.462 387.836 921.223 389.936 927.788 390.467C940.241 391.476 953.209 387.23 962.04 378.392C973.281 367.144 976.672 350.522 983.342 336.086C989.508 322.739 999.044 309.386 996.724 294.868C994.215 279.169 978.651 268.564 972.519 254.179Z" fill="#FFEDE4"/>
<path d="M945.3 264.16C950.901 260.595 956.136 256.551 960.996 252.09L909.574 273.808C909.745 274.295 909.905 274.785 910.066 275.273C910.46 275.246 910.873 275.259 911.307 275.332C923.408 277.348 935.447 270.433 945.3 264.16Z" fill="#FFEDE4"/>
<g opacity="0.1">
<path d="M948.729 273.244C957.407 267.923 965.416 261.483 972.519 254.179C971.68 252.211 971.013 250.174 970.585 248.041L960.996 252.09C956.136 256.551 950.9 260.596 945.3 264.161C935.447 270.433 923.408 277.348 911.307 275.333C910.872 275.261 910.46 275.248 910.066 275.275C911.121 278.474 911.969 281.719 912.627 284.999C925.619 285.9 937.773 279.961 948.729 273.244Z" fill="#FFEDE4"/>
</g>
<path d="M967.377 239.122C965.085 240.132 963.693 243.461 961.226 242.992C960.332 242.822 959.618 242.152 958.78 241.793C955.948 240.578 953.027 243.141 951.132 245.566C949.237 247.992 946.781 250.814 943.764 250.232C941.885 249.869 940.345 248.193 938.436 248.204C934.519 248.227 933.731 254.643 929.99 255.789C928.192 256.34 926.292 255.475 924.419 255.271C920.783 254.877 917.063 257.343 915.981 260.865C915.584 262.157 915.461 263.641 914.502 264.581C911.882 267.152 906.49 262.967 904.113 265.768C903.496 266.496 903.341 267.492 903.393 268.473C902.639 271.87 904.126 275.383 906.973 277.464C910.746 280.221 915.624 280.117 919.923 279.009C925.946 277.457 931.545 274.649 936.867 271.33C939.223 270.293 941.56 269.209 943.885 268.128C949.439 265.545 954.992 262.963 960.545 260.379C964.166 258.696 967.872 256.951 970.657 254.072C973.441 251.192 975.145 246.886 973.895 243.034C973.006 240.299 969.972 237.98 967.377 239.122ZM913.31 278.009C913.608 278.02 913.907 278.018 914.205 278.007C914.213 278.027 914.215 278.048 914.225 278.068C913.92 278.058 913.615 278.037 913.31 278.009Z" fill="#FFEDE4"/>
<path d="M913.31 278.008C913.614 278.037 913.919 278.058 914.225 278.067C914.215 278.048 914.212 278.027 914.205 278.007C913.907 278.018 913.609 278.019 913.31 278.008Z" fill="#FFEDE4"/>
<path d="M924.419 255.27C920.783 254.876 917.063 257.342 915.981 260.864C915.764 261.569 915.625 262.328 915.392 263.027C918.085 268.047 920.983 272.945 924.089 277.713C927.127 276.619 930.061 275.236 932.909 273.661C931.311 267.753 929.714 261.846 928.117 255.938C926.898 255.823 925.652 255.404 924.419 255.27Z" fill="#FFEDE4"/>
<path d="M943.014 250.016C941.46 249.441 940.086 248.194 938.437 248.203C935.049 248.223 934.001 253.023 931.359 255.061C932.878 260.676 934.396 266.292 935.914 271.907C936.232 271.713 936.552 271.525 936.868 271.328C939.224 270.291 941.561 269.207 943.885 268.126C944.527 267.828 945.169 267.529 945.811 267.23C945.811 266.99 945.815 266.75 945.811 266.508C945.7 260.874 944.731 255.343 943.014 250.016Z" fill="#FFEDE4"/>
<path d="M904.113 265.767C903.496 266.495 903.341 267.491 903.393 268.472C902.639 271.869 904.126 275.382 906.973 277.463C910.746 280.22 915.624 280.115 919.923 279.007C920.21 278.934 920.49 278.844 920.775 278.764C917.966 274.41 915.321 269.952 912.854 265.389C910.041 265.87 906.064 263.469 904.113 265.767ZM913.31 278.009C913.608 278.02 913.907 278.018 914.205 278.007C914.213 278.027 914.215 278.048 914.225 278.068C913.92 278.058 913.615 278.037 913.31 278.009Z" fill="#FFEDE4"/>
<path d="M962.224 242.971C961.909 243.042 961.58 243.06 961.226 242.992C960.332 242.822 959.618 242.152 958.78 241.793C955.948 240.578 953.027 243.141 951.132 245.566C949.843 247.216 948.295 249.046 946.489 249.867C948.045 254.915 948.956 260.151 949.142 265.447C949.145 265.525 949.143 265.602 949.145 265.68C952.945 263.913 956.745 262.146 960.545 260.379C961.919 259.74 963.305 259.09 964.649 258.375C964.649 253.16 963.84 247.948 962.224 242.971Z" fill="#FFEDE4"/>
<path d="M967.377 239.122C966.502 239.508 965.757 240.231 965.035 240.953C966.758 245.96 967.724 251.154 967.918 256.378C968.893 255.688 969.82 254.935 970.655 254.071C973.439 251.191 975.144 246.885 973.893 243.033C973.006 240.299 969.972 237.98 967.377 239.122Z" fill="#FFEDE4"/>
<path d="M914.502 264.58C914.031 265.042 913.47 265.283 912.854 265.389C915.322 269.952 917.966 274.41 920.776 278.764C921.893 278.452 923 278.105 924.089 277.713C920.983 272.945 918.086 268.047 915.392 263.026C915.197 263.61 914.939 264.152 914.502 264.58Z" fill="#FFEDE4"/>
<path d="M929.99 255.788C929.376 255.976 928.75 255.997 928.117 255.938C929.715 261.845 931.311 267.753 932.909 273.661C933.922 273.101 934.921 272.511 935.912 271.908C934.394 266.293 932.876 260.677 931.358 255.062C930.946 255.381 930.496 255.634 929.99 255.788Z" fill="#FFEDE4"/>
<path d="M946.488 249.867C945.637 250.253 944.73 250.419 943.764 250.232C943.507 250.183 943.258 250.107 943.013 250.016C944.731 255.344 945.699 260.874 945.81 266.509C945.814 266.751 945.81 266.991 945.81 267.231C946.921 266.714 948.033 266.197 949.145 265.679C949.143 265.601 949.145 265.525 949.142 265.446C948.956 260.152 948.045 254.914 946.488 249.867Z" fill="#FFEDE4"/>
<path d="M965.035 240.953C964.136 241.85 963.268 242.737 962.224 242.971C963.839 247.948 964.649 253.16 964.649 258.374C965.782 257.772 966.879 257.111 967.918 256.377C967.724 251.154 966.759 245.96 965.035 240.953Z" fill="#FFEDE4"/>
<path d="M822.468 357.423C810.461 353.349 788.319 350.719 736.001 371.722C734.491 371.022 732.964 370.345 731.389 369.712C722.832 366.266 714.391 362.408 705.369 359.976C701.019 358.804 696.544 357.838 692.084 357.013C688.344 356.322 684.555 356.207 680.715 356.946C675.396 357.968 668.248 361.395 668.018 367.263C667.935 369.406 668.964 371.348 669.946 373.167C671.05 375.213 672.37 377.235 674.008 378.927C677.326 382.355 681.759 384.895 685.542 387.851C687.527 389.402 689.311 391.144 691.265 392.718C691.736 393.098 692.209 393.464 692.679 393.825C679.169 402.545 670.239 410.457 665.205 415.457C662.75 414.098 660.156 412.865 657.537 411.817C652.475 409.795 646.945 407.725 641.505 406.744C636.275 405.803 630.876 404.87 625.563 404.479C624.006 404.365 622.233 404.492 620.644 405.025C615.634 405.82 613.052 409.664 616.642 419.365C626.134 445.016 645.895 460.638 662.625 464.819C701.343 474.493 777.453 428.521 806.368 405.114C835.28 381.707 834.575 361.531 822.468 357.423Z" fill="#FFEDE4"/>
<path d="M731.287 410.586C717.395 418.151 714.182 426.346 707.649 450.206C701.115 474.065 705.846 488.149 723.332 476.991C740.819 465.833 767.504 423.54 762.953 413.966C758.402 404.39 743.362 404.011 731.287 410.586Z" fill="#FFEDE4"/>
<g opacity="0.05">
<path d="M751.926 384.826C752.414 386.476 751.351 387.723 749.458 387.414C748.013 387.178 747.125 385.252 747.249 383.964C747.553 380.805 742.476 380.203 742.171 383.375C741.738 387.871 744.922 392.564 749.965 392.298C752.391 392.169 754.665 391.352 756.081 389.307C757.495 387.265 757.372 385.046 756.726 382.865C755.834 379.848 751.04 381.829 751.926 384.826Z" fill="#FFEDE4"/>
</g>
<g opacity="0.05">
<path d="M736.17 388.919C734.954 386.021 730.15 387.975 731.37 390.881C731.763 391.818 732.263 392.818 732.321 393.856C732.387 395.038 731.44 395.27 730.338 395.415C729.282 395.553 728.115 395.603 727.727 394.534C727.363 393.532 727.501 392.019 727.915 391.031C729.165 388.048 724.467 386.227 723.213 389.22C722.143 391.775 722.052 395.145 723.429 397.512C724.81 399.885 727.594 400.566 730.337 400.348C733.063 400.131 735.925 398.833 737.041 396.25C738.088 393.82 737.102 391.14 736.17 388.919Z" fill="#FFEDE4"/>
</g>
<g opacity="0.05">
<path d="M716.733 396.944C714.819 394.436 710.676 397.524 712.596 400.038C713.473 401.187 713.783 404.816 711.684 404.952C710.679 405.017 709.988 404.797 709.536 404.029C709.286 403.606 709.113 402.965 709.067 402.464C708.997 402.135 709.018 401.805 709.129 401.477C709.134 401.449 709.138 401.431 709.142 401.406C710.591 398.932 706.849 396.375 704.886 398.84C703.181 400.98 703.895 404.354 704.963 406.522C706.174 408.978 709.095 410.049 711.872 409.857C714.996 409.64 717.065 407.798 717.978 404.962C718.788 402.445 718.306 399.005 716.733 396.944Z" fill="#FFEDE4"/>
</g>
<path d="M751.992 377.025C751.887 376.972 751.784 376.915 751.676 376.868C748.168 375.325 744.16 377.138 742.815 380.679C741.48 384.197 743.436 387.949 747.023 389.038C751.018 390.251 756.392 387.276 756.075 382.833C755.883 380.159 754.288 377.782 751.992 377.025Z" fill="#FFEDE4"/>
<path d="M728.332 384.776C727.105 384.975 726.034 385.557 725.155 386.374C724.159 386.908 723.351 387.77 722.909 389C722.74 389.312 722.593 389.641 722.477 389.987C721.961 391.527 722.087 393.202 722.763 394.578C723.065 395.638 723.634 396.586 724.506 397.294C726.352 398.793 729.021 398.757 731.175 397.636C732.43 396.983 733.387 396.05 734.041 394.944C737.775 390.746 734.323 383.805 728.332 384.776Z" fill="#FFEDE4"/>
<path d="M714.015 396.156C712.553 394.814 710.401 394.229 708.341 394.502C707.957 394.553 707.605 394.639 707.278 394.748C706.605 394.927 705.943 395.257 705.345 395.75C704.462 396.212 703.744 396.902 703.282 397.996C702.793 399.153 702.746 400.515 703.166 401.682C703.277 402.513 703.533 403.318 703.93 404.049C704.424 405.716 705.441 407.068 707.2 407.686C709.313 408.429 711.749 407.927 713.512 406.504C716.796 403.854 716.935 398.835 714.015 396.156Z" fill="#FFEDE4"/>
<path d="M826.239 361.144C824.376 363.931 822.304 366.462 819.742 368.66C818.309 370.375 816.625 372.034 814.669 372.914C814.456 373.01 814.238 373.063 814.019 373.092C812.168 374.393 810.235 375.559 808.075 376.436C804.032 378.076 799.817 379.425 795.607 380.564C788.091 382.599 779.418 382.326 772.243 379.884C765.275 377.513 758.954 371.393 756.225 364.884C756.14 364.683 756.09 364.487 756.061 364.296C749.917 366.358 743.25 368.812 736 371.722C734.49 371.022 732.963 370.345 731.388 369.712C722.831 366.266 714.39 362.408 705.368 359.976C701.018 358.804 696.544 357.838 692.083 357.014C688.343 356.322 684.554 356.208 680.714 356.946C675.396 357.969 668.247 361.396 668.018 367.263C667.934 369.406 668.963 371.348 669.945 373.167C671.05 375.213 672.369 377.235 674.008 378.927C677.325 382.355 681.758 384.895 685.541 387.852C687.526 389.402 689.31 391.144 691.265 392.718C691.736 393.098 692.208 393.464 692.678 393.826C679.169 402.545 670.238 410.457 665.204 415.457C662.749 414.098 660.155 412.865 657.536 411.818C652.474 409.795 646.944 407.725 641.504 406.745C636.274 405.803 630.875 404.87 625.563 404.479C624.006 404.365 622.232 404.492 620.643 405.025C615.633 405.821 613.051 409.664 616.641 419.365C626.133 445.017 645.894 460.638 662.625 464.819C701.342 474.493 777.452 428.521 806.367 405.115C831.174 385.033 834.177 367.328 826.884 360.111C826.671 360.478 826.452 360.826 826.239 361.144Z" fill="#FFEDE4"/>
<path d="M794.782 375.749C798.112 374.799 801.532 373.82 804.743 372.52C807.597 371.364 809.913 369.944 812.274 368.235C814.594 364.297 817.141 360.388 819.615 356.549C809.4 353.747 792.647 352.685 760.911 362.716C760.948 362.786 760.993 362.846 761.025 362.923C766.18 375.211 781.907 379.424 794.782 375.749Z" fill="#FFEDE4"/>
<g opacity="0.05">
<path d="M772.244 379.884C779.419 382.326 788.092 382.599 795.608 380.564C799.818 379.424 804.033 378.076 808.076 376.436C810.236 375.559 812.169 374.393 814.02 373.092C814.238 373.063 814.457 373.009 814.67 372.913C816.625 372.033 818.31 370.374 819.743 368.66C822.305 366.462 824.377 363.931 826.24 361.144C826.453 360.825 826.672 360.477 826.885 360.11C825.677 358.915 824.189 358.006 822.469 357.423C821.578 357.12 820.628 356.826 819.616 356.549C817.142 360.388 814.595 364.297 812.275 368.235C809.914 369.944 807.598 371.364 804.744 372.52C801.533 373.82 798.112 374.799 794.783 375.749C781.908 379.424 766.18 375.211 761.027 362.922C760.994 362.845 760.95 362.785 760.913 362.715C759.333 363.214 757.718 363.74 756.063 364.295C756.093 364.486 756.142 364.683 756.227 364.884C758.955 371.393 765.276 377.513 772.244 379.884Z" fill="#FFEDE4"/>
</g>
<path d="M768.998 373.728C779.796 379.417 793.524 380.589 804.779 374.087C810.051 371.041 814.559 366.448 818.48 361.924C819.805 360.395 820.761 358.742 821.297 357.041C810.786 353.755 792.86 351.949 756.076 364.29C757.857 366.133 759.757 367.901 761.742 369.516C763.976 371.333 766.463 372.393 768.998 373.728Z" fill="#FFEDE4"/>
<path d="M822.468 357.423C822.088 357.294 821.697 357.166 821.297 357.041C820.761 358.742 819.805 360.395 818.48 361.924C814.559 366.448 810.051 371.041 804.779 374.087C793.524 380.589 779.796 379.417 768.998 373.729C766.463 372.393 763.976 371.333 761.743 369.516C759.758 367.901 757.857 366.133 756.077 364.29C749.93 366.353 743.257 368.81 736.002 371.722C734.492 371.022 732.965 370.345 731.39 369.712C722.833 366.266 714.392 362.408 705.37 359.976C701.02 358.804 696.545 357.838 692.085 357.014C688.345 356.322 684.556 356.207 680.716 356.946C675.397 357.969 668.249 361.396 668.02 367.263C667.936 369.406 668.965 371.348 669.947 373.167C671.051 375.213 672.371 377.235 674.009 378.927C677.327 382.355 681.76 384.895 685.543 387.851C687.528 389.402 689.312 391.144 691.266 392.718C691.737 393.098 692.21 393.464 692.68 393.826C679.17 402.545 670.24 410.457 665.206 415.457C662.751 414.098 660.157 412.865 657.537 411.817C652.476 409.795 646.945 407.725 641.506 406.745C636.276 405.803 630.877 404.87 625.564 404.479C624.007 404.365 622.234 404.492 620.645 405.025C615.635 405.82 613.053 409.664 616.643 419.365C626.135 445.017 645.896 460.638 662.626 464.819C701.344 474.493 777.454 428.521 806.369 405.115C835.28 381.707 834.575 361.531 822.468 357.423Z" fill="#FFEDE4"/>
<path d="M702.991 382.754C707.443 380.118 712.183 378.012 716.826 375.738C720.77 373.807 724.88 371.866 729.068 370.518C729.833 370.271 730.575 369.983 731.308 369.678C722.779 366.241 714.363 362.4 705.369 359.976C701.019 358.804 696.544 357.838 692.084 357.013C688.344 356.322 684.555 356.207 680.715 356.946C675.397 357.968 668.248 361.395 668.019 367.263C667.935 369.406 668.964 371.348 669.946 373.167C671.051 375.213 672.37 377.235 674.009 378.927C677.326 382.355 681.759 384.895 685.542 387.851C686.853 388.875 688.078 389.981 689.321 391.068C689.362 391.041 689.394 391.011 689.438 390.984C694.017 388.34 698.43 385.455 702.991 382.754Z" fill="#FFEDE4"/>
<path d="M822.468 357.423C810.487 353.358 788.415 350.733 736.35 371.583C734.717 372.389 733.081 373.181 731.332 373.783C727.176 375.212 723.122 376.904 719.162 378.82C714.219 381.211 709.247 383.5 704.506 386.271C700.425 388.656 696.484 391.237 692.412 393.618C692.501 393.686 692.59 393.758 692.678 393.826C679.169 402.545 670.238 410.457 665.204 415.457C662.749 414.098 660.155 412.865 657.536 411.818C652.474 409.796 646.944 407.726 641.504 406.745C636.274 405.804 630.875 404.871 625.563 404.48C624.006 404.365 622.232 404.493 620.643 405.026C615.633 405.821 613.051 409.665 616.641 419.366C626.133 445.017 645.894 460.639 662.625 464.819C701.342 474.494 777.452 428.522 806.367 405.115C835.28 381.707 834.575 361.531 822.468 357.423Z" fill="#FFEDE4"/>
<g opacity="0.05">
<path d="M719.162 378.819C723.122 376.903 727.176 375.211 731.332 373.782C733.081 373.181 734.717 372.389 736.35 371.583C736.233 371.629 736.118 371.674 736.001 371.722C734.491 371.022 732.964 370.345 731.389 369.712C731.362 369.701 731.335 369.69 731.307 369.678C730.575 369.983 729.833 370.271 729.068 370.518C724.88 371.865 720.77 373.808 716.826 375.739C712.183 378.013 707.443 380.119 702.991 382.754C698.43 385.455 694.018 388.339 689.438 390.985C689.393 391.01 689.361 391.041 689.321 391.068C689.96 391.628 690.602 392.183 691.266 392.718C691.648 393.026 692.03 393.322 692.413 393.617C696.485 391.236 700.427 388.655 704.507 386.27C709.247 383.499 714.219 381.211 719.162 378.819Z" fill="#FFEDE4"/>
</g>
<path d="M639.672 419.626C639.665 419.381 639.524 419.157 639.298 419.059L635.054 417.102L634.26 412.495C634.218 412.254 634.043 412.059 633.808 411.988C633.573 411.919 633.32 411.988 633.153 412.169L629.981 415.601L625.355 414.933C625.113 414.898 624.871 415.004 624.733 415.205C624.594 415.407 624.582 415.67 624.702 415.884L626.985 419.962L624.92 424.155C624.812 424.375 624.837 424.636 624.987 424.831C625.032 424.889 625.086 424.938 625.145 424.978C625.284 425.068 625.455 425.103 625.622 425.07L630.207 424.159L633.557 427.419C633.733 427.592 633.99 427.645 634.22 427.564C634.451 427.482 634.615 427.276 634.644 427.034L635.194 422.392L639.33 420.214C639.546 420.097 639.679 419.87 639.672 419.626Z" fill="#FFEDE4"/>
<path d="M634.095 427.592C634.137 427.586 634.179 427.577 634.219 427.563C634.324 427.526 634.413 427.463 634.485 427.383C634.37 427.481 634.239 427.551 634.095 427.592Z" fill="#FFEDE4"/>
<path d="M629.53 423.814C630.043 423.871 630.433 424.157 630.843 424.441C631.281 424.744 631.73 425.028 632.193 425.291C632.595 425.519 633.007 425.733 633.427 425.925C633.443 425.932 633.46 425.939 633.476 425.946C633.511 425.81 633.566 425.665 633.583 425.577C633.761 424.655 633.835 423.716 633.845 422.778C633.858 421.735 634.355 421.315 635.297 420.993C636.479 420.588 638.659 420.352 639.341 419.082C639.327 419.074 639.313 419.066 639.298 419.059L635.054 417.102L634.26 412.495C634.218 412.254 634.043 412.059 633.808 411.988C633.573 411.919 633.32 411.988 633.153 412.169L629.981 415.601L625.355 414.933C625.113 414.898 624.871 415.004 624.733 415.205C624.594 415.407 624.582 415.67 624.702 415.884L626.985 419.962L624.92 424.155C624.812 424.375 624.837 424.636 624.987 424.831C624.994 424.84 625.003 424.847 625.011 424.856C625.62 424.675 626.23 424.5 626.842 424.333C627.681 424.106 628.647 423.716 629.53 423.814Z" fill="#FFEDE4"/>
<g opacity="0.1">
<path d="M634.644 427.032L635.194 422.39L639.329 420.212C639.547 420.097 639.679 419.87 639.672 419.626C639.666 419.398 639.541 419.189 639.342 419.082C638.659 420.351 636.479 420.588 635.297 420.993C634.355 421.315 633.858 421.734 633.845 422.778C633.835 423.716 633.761 424.655 633.583 425.577C633.566 425.665 633.511 425.81 633.476 425.946C633.46 425.939 633.444 425.932 633.427 425.925C633.007 425.733 632.596 425.519 632.193 425.291C631.73 425.028 631.282 424.743 630.843 424.441C630.433 424.157 630.043 423.871 629.53 423.814C628.647 423.716 627.681 424.106 626.841 424.333C626.227 424.499 625.617 424.675 625.009 424.856C625.05 424.903 625.094 424.944 625.144 424.977C625.282 425.067 625.454 425.103 625.621 425.069L630.205 424.158L633.555 427.418C633.7 427.56 633.9 427.621 634.094 427.592C634.238 427.551 634.369 427.481 634.484 427.383C634.571 427.286 634.628 427.166 634.644 427.032Z" fill="#FFEDE4"/>
</g>
<path d="M50.661 261.229C50.0802 262.441 7.16385 349.698 25.3511 360.831C43.5384 371.964 87.5143 386.451 103.396 376.846C119.277 367.241 127.161 277.513 125.298 272.071C123.435 266.628 56.3394 249.375 50.661 261.229Z" fill="#FFEDE4"/>
<path d="M91.0128 277.619C102.052 278.905 114.801 278.351 125.539 274.186C125.5 273.153 125.421 272.427 125.299 272.071C123.494 266.798 60.4742 250.443 51.3713 260.201C52.1185 260.578 52.7962 261.143 53.3436 261.842C61.9017 272.777 77.9222 276.094 91.0128 277.619Z" fill="#FFEDE4"/>
<path d="M88.9287 286.619C73.7161 284.846 57.5461 280.376 47.1301 268.668C37.1233 290.21 10.2935 351.612 25.352 360.831C43.5393 371.964 87.5152 386.45 103.397 376.846C116.124 369.148 123.714 310 125.268 284.006C113.635 287.645 100.74 287.995 88.9287 286.619Z" fill="#FFEDE4"/>
<g opacity="0.1">
<path d="M88.9287 286.619C100.741 287.995 113.635 287.645 125.268 284.006C125.526 279.688 125.618 276.286 125.539 274.186C114.801 278.351 102.052 278.905 91.0128 277.619C77.9222 276.095 61.9017 272.777 53.3428 261.843C52.7954 261.143 52.1177 260.579 51.3705 260.202C51.0765 260.517 50.8389 260.859 50.6611 261.23C50.5617 261.438 49.2081 264.193 47.1293 268.669C57.5461 280.376 73.7153 284.846 88.9287 286.619Z" fill="#FFEDE4"/>
</g>
<g opacity="0.1">
<path d="M56.7813 306.62C57.9773 301.133 59.4401 295.483 58.0548 289.895C57.6843 288.399 55.3573 287.747 54.3751 289.043C41.4614 306.082 33.823 326.539 32.4104 347.871C32.362 348.608 32.6296 349.135 33.052 349.465C33.2078 351.252 35.3165 352.423 36.7801 350.921C44.4731 343.022 49.2863 333.024 52.6166 322.619C54.2976 317.366 55.6081 312.005 56.7813 306.62ZM50.6144 313.724C50.5581 313.641 50.5 313.56 50.434 313.486C50.764 312.544 51.08 311.597 51.3783 310.644C51.1328 311.673 50.8776 312.7 50.6144 313.724ZM38.8114 341.344C38.998 341.233 39.1652 341.081 39.306 340.888C39.1185 341.163 38.9284 341.437 38.7366 341.709C38.7621 341.587 38.7859 341.465 38.8114 341.344ZM39.5551 340.432C39.5991 340.318 39.6431 340.206 39.6871 340.092C39.7258 340.11 39.7654 340.126 39.8059 340.141C39.6624 340.359 39.5181 340.577 39.3711 340.794C39.4407 340.685 39.5031 340.566 39.5551 340.432Z" fill="#FFEDE4"/>
</g>
<path d="M75.104 378.704C78.2222 377.746 81.2938 376.671 84.2949 375.441C90.5806 371.957 96.1076 367.177 100.875 361.801C114.304 346.656 121.721 326.431 121.862 306.25C121.876 304.25 122.598 302.371 123.827 300.956C125.426 285.81 125.94 273.945 125.298 272.072C123.435 266.629 56.3386 249.376 50.661 261.231C50.0802 262.443 7.16385 349.698 25.3511 360.832C36.4281 367.612 57.069 375.636 75.104 378.704Z" fill="#FFEDE4"/>
<g opacity="0.1">
<path d="M121.863 306.249C121.721 326.43 114.304 346.655 100.876 361.8C96.1084 367.176 90.5814 371.956 84.2957 375.44C81.2937 376.671 78.2231 377.746 75.1049 378.703C86.6835 380.672 97.1874 380.6 103.397 376.845C113.81 370.547 120.785 329.799 123.828 300.954C122.599 302.371 121.877 304.249 121.863 306.249Z" fill="#FFEDE4"/>
</g>
<path d="M127.02 265.428C126.712 261.575 124.587 258.031 121.74 255.493C118.719 252.8 114.99 251.123 111.207 249.791C109.692 249.258 107.927 248.841 106.679 247.772C105.206 246.508 105.898 244.694 106.489 243.135C109.193 236.009 110.934 226.498 105.567 220.077C103.056 217.073 99.0402 216.01 95.6025 218.138C95.445 218.236 95.2936 218.34 95.1422 218.445C90.3201 220.006 87.5522 227.135 86.7549 231.596C86.1846 234.79 86.9115 238.411 85.7612 241.47C85.2006 242.96 83.994 243.827 82.6087 244.48C81.5411 244.411 80.4736 244.166 79.4465 243.909C75.721 242.976 72.1857 242.376 68.3828 243.283C64.9601 244.1 61.7019 245.837 59.1857 248.306C57.9474 249.522 56.8755 250.893 56.02 252.401C55.9804 252.471 55.9461 252.54 55.9162 252.61C55.0695 253.801 54.4147 255.183 54.5423 256.619C54.7201 258.617 56.4275 259.705 57.9439 260.76C61.2478 263.057 64.9381 264.805 68.7207 266.154C76.8845 269.067 85.6398 270.359 94.175 271.676C98.7788 272.387 103.396 273.012 108.022 273.548C112.455 274.063 117.098 274.698 121.537 273.904C125.696 273.159 127.331 269.314 127.02 265.428Z" fill="#FFEDE4"/>
<path d="M123.085 268.951C120.366 264.341 116.6 260.604 111.895 258.031C107.051 255.382 102.032 254.016 100.436 248.013C98.9839 242.547 101.164 236.991 101.857 231.594C102.463 226.883 102.396 222.108 101.742 217.412C99.7707 216.751 97.5898 216.908 95.6017 218.139C95.4441 218.237 95.2927 218.342 95.1414 218.446C90.3193 220.007 87.5514 227.137 86.754 231.597C86.1837 234.791 86.9107 238.412 85.7604 241.471C85.1997 242.962 83.9931 243.829 82.6079 244.481C81.5403 244.412 80.4727 244.167 79.4457 243.91C75.7202 242.978 72.1857 242.377 68.3819 243.285C64.9592 244.101 61.7011 245.838 59.184 248.307C57.9457 249.523 56.8746 250.894 56.0191 252.402C55.9795 252.472 55.9452 252.542 55.9153 252.61C55.0686 253.801 54.4138 255.184 54.5415 256.619C54.7192 258.617 56.4266 259.706 57.9431 260.76C61.2461 263.057 64.9372 264.805 68.7199 266.154C76.8846 269.067 85.6389 270.359 94.1741 271.677C98.7779 272.387 103.395 273.011 108.022 273.549C112.455 274.064 117.098 274.698 121.537 273.904C123.482 273.556 124.868 272.525 125.769 271.134C124.74 270.833 123.787 270.139 123.085 268.951Z" fill="#FFEDE4"/>
<g opacity="0.05">
<path d="M101.857 231.593C101.165 236.99 98.9838 242.546 100.436 248.012C102.031 254.015 107.051 255.38 111.895 258.029C116.6 260.603 120.367 264.34 123.085 268.95C123.787 270.139 124.74 270.831 125.769 271.131C126.793 269.548 127.186 267.496 127.02 265.427C126.712 261.573 124.587 258.03 121.74 255.492C118.719 252.8 114.99 251.122 111.206 249.79C109.691 249.257 107.926 248.84 106.679 247.771C105.205 246.507 105.897 244.693 106.488 243.134C109.192 236.008 110.933 226.497 105.566 220.076C104.507 218.81 103.179 217.893 101.742 217.41C102.396 222.106 102.463 226.882 101.857 231.593Z" fill="#FFEDE4"/>
</g>
<path d="M67.5528 278.742C57.5848 274.681 46.4665 268.538 47.0966 261.438C47.7268 254.337 50.801 250.546 56.1027 252.05C61.4044 253.555 71.9815 266.312 96.5627 265.104C121.144 263.897 127.349 263.01 129.02 265.49C130.689 267.969 134.609 274.879 127.626 280.147C120.642 285.414 98.8888 286.051 88.3188 284.107C77.7488 282.161 67.5528 278.742 67.5528 278.742Z" fill="#FFEDE4"/>
<path d="M61.4027 259.565C59.7129 262.604 58.3513 265.773 57.3463 269.102C56.9397 270.449 59.007 271.164 59.4145 269.815C60.3659 266.667 61.6183 263.661 63.2183 260.786C63.8986 259.562 62.0874 258.335 61.4027 259.565Z" fill="#FFEDE4"/>
<path d="M70.1748 263.675C69.1891 266.902 68.4348 270.176 67.8901 273.505C67.663 274.893 69.8474 275.021 70.0727 273.643C70.5867 270.506 71.3145 267.427 72.243 264.388C72.6532 263.043 70.5858 262.328 70.1748 263.675Z" fill="#FFEDE4"/>
<path d="M79.7853 266.582C79.3435 269.719 78.9017 272.857 78.4599 275.994C78.2636 277.388 80.4471 277.519 80.6425 276.132C81.0843 272.994 81.5261 269.856 81.9679 266.719C82.1642 265.325 79.9798 265.195 79.7853 266.582Z" fill="#FFEDE4"/>
<path d="M92.8311 268.868C92.846 267.466 90.6634 267.32 90.6484 268.731C90.6115 272.197 90.4548 275.655 90.1767 279.11C90.064 280.514 92.2467 280.651 92.3593 279.247C92.6366 275.793 92.7941 272.334 92.8311 268.868Z" fill="#FFEDE4"/>
<path d="M104.721 278.649C104.482 275.699 104.482 272.75 104.683 269.798C104.778 268.394 102.595 268.255 102.5 269.661C102.285 272.814 102.325 275.948 102.58 279.096C102.693 280.493 104.833 280.038 104.721 278.649Z" fill="#FFEDE4"/>
<path d="M111.531 270.595C111.125 273.371 110.72 276.146 110.314 278.921C110.111 280.314 112.294 280.444 112.497 279.059C112.903 276.283 113.307 273.508 113.713 270.732C113.916 269.34 111.733 269.209 111.531 270.595Z" fill="#FFEDE4"/>
<path d="M123.435 269.705C123.377 268.313 121.193 268.16 121.252 269.568C121.386 272.753 121.162 275.895 120.579 279.03C120.322 280.411 122.507 280.536 122.761 279.167C123.345 276.033 123.569 272.89 123.435 269.705Z" fill="#FFEDE4"/>
<path d="M739.923 188.059C745.312 193.461 750.807 198.758 756.387 203.962C758.717 206.136 762.892 205.107 764.644 202.752C766.718 199.964 765.774 196.677 763.433 194.495C760.965 192.193 758.526 189.861 756.101 187.517C754.341 185.189 752.532 182.901 750.669 180.653C750.662 180.645 750.655 180.639 750.649 180.631C750.432 180.302 750.218 179.971 750.006 179.641C749.478 178.773 748.946 177.907 748.421 177.037C747.945 176.25 747.463 175.45 746.989 174.643C745.967 172.822 745.005 170.965 744.092 169.074C743.519 167.743 743.028 166.385 742.691 164.988C740.666 156.568 746.088 149.595 753.212 145.752C761.024 141.538 770.53 140.385 778.276 145.311C784.531 149.288 788.734 155.36 792.306 161.744C793.839 165.523 795.345 169.314 796.883 173.088C799.748 180.125 810.609 175.51 807.743 168.472C802.938 156.673 799.039 143.083 790.726 133.177C783.156 124.155 772.318 119.943 760.662 122.107C738.657 126.19 716.961 148.142 726.919 171.729C729.667 178.241 735.029 183.151 739.923 188.059Z" fill="#FFEDE4"/>
<path d="M764.644 202.752C766.1 200.795 766.065 198.595 765.109 196.702C762.479 199.288 759.948 201.969 757.512 204.705C759.883 205.8 763.147 204.764 764.644 202.752Z" fill="#FFEDE4"/>
<path d="M739.923 188.059C743.203 191.347 746.527 194.592 749.88 197.804C752.482 194.907 755.184 192.068 757.986 189.326C757.357 188.723 756.727 188.122 756.101 187.517C754.341 185.189 752.532 182.901 750.669 180.653C750.663 180.645 750.655 180.639 750.649 180.631C750.432 180.302 750.218 179.972 750.006 179.641C749.478 178.773 748.946 177.907 748.421 177.037C747.945 176.25 747.463 175.45 746.989 174.643C745.967 172.822 745.005 170.965 744.093 169.074C743.519 167.743 743.028 166.385 742.691 164.988C740.666 156.568 746.088 149.595 753.212 145.752C761.024 141.538 770.53 140.385 778.276 145.311C784.531 149.288 788.734 155.36 792.306 161.744C792.75 162.836 793.188 163.93 793.628 165.024C797.313 163.573 801.116 162.39 805.04 161.524C801.28 151.595 797.444 141.183 790.726 133.177C783.155 124.155 772.317 119.943 760.661 122.107C738.656 126.19 716.96 148.142 726.918 171.729C729.667 178.241 735.029 183.151 739.923 188.059Z" fill="#FFEDE4"/>
<path d="M808.173 171.442C804.571 172.19 801.084 173.235 797.707 174.536C800.786 178.581 807.584 176.146 808.173 171.442Z" fill="#FFEDE4"/>
<g opacity="0.1">
<path d="M756.386 203.961C756.725 204.277 757.106 204.518 757.511 204.705C759.947 201.969 762.479 199.288 765.109 196.702C764.702 195.897 764.132 195.145 763.433 194.494C761.601 192.786 759.79 191.059 757.984 189.325C755.183 192.066 752.48 194.906 749.879 197.803C752.037 199.869 754.202 201.924 756.386 203.961Z" fill="#FFEDE4"/>
</g>
<g opacity="0.1">
<path d="M796.881 173.086C797.108 173.644 797.39 174.12 797.707 174.536C801.084 173.235 804.572 172.19 808.173 171.441C808.287 170.526 808.171 169.526 807.742 168.47C806.82 166.208 805.931 163.878 805.039 161.522C801.114 162.388 797.312 163.57 793.627 165.022C794.709 167.712 795.788 170.403 796.881 173.086Z" fill="#FFEDE4"/>
</g>
<path d="M799.985 259.328C807.326 260.919 816.396 259.863 823.122 256.517C830.078 253.057 835.957 246.65 839.556 239.828C843.131 233.054 843.74 225.124 840.836 217.993C837.372 209.486 830.259 203.307 822.96 198.1C818.897 195.201 814.707 192.463 810.879 189.249C807.653 186.54 804.867 183.446 802.434 180.038C802.422 179.922 802.41 179.805 802.388 179.683C801.621 175.384 797.885 172.796 793.575 173.068C789.449 173.328 785.297 175.515 781.791 177.548C778.013 179.737 774.656 182.548 771.716 185.772C769.117 188.62 765.914 192.471 767.368 196.604C767.972 198.321 769.309 199.712 770.315 201.197C771.591 203.078 772.684 205.049 773.616 207.122C775.398 211.086 776.472 215.203 777.108 219.492C778.35 227.853 778.539 236.535 782.061 244.374C785.528 252.087 791.669 257.527 799.985 259.328Z" fill="#FFEDE4"/>
<path d="M788.168 231.279C788.911 235.888 789.935 240.147 792.635 244.032C795.201 247.726 798.792 250.722 802.325 253.454C805.405 255.838 808.769 258.099 812.373 259.692C816.193 259.175 819.923 258.108 823.122 256.517C830.079 253.057 835.957 246.649 839.556 239.828C843.132 233.054 843.74 225.124 840.836 217.992C837.372 209.486 830.259 203.307 822.96 198.1C818.897 195.201 814.707 192.463 810.879 189.249C807.653 186.54 804.866 183.446 802.434 180.038C802.422 179.922 802.41 179.805 802.388 179.683C801.621 175.384 797.885 172.796 793.575 173.068C789.449 173.328 785.297 175.515 781.791 177.548C778.013 179.737 774.656 182.547 771.716 185.772C770.189 187.447 768.458 189.469 767.583 191.691C780.353 200.589 785.734 216.178 788.168 231.279Z" fill="#FFEDE4"/>
<g opacity="0.1">
<path d="M792.635 244.032C789.935 240.147 788.911 235.888 788.168 231.279C785.733 216.178 780.353 200.588 767.583 191.692C766.968 193.248 766.769 194.901 767.369 196.604C767.973 198.321 769.309 199.713 770.316 201.198C771.592 203.08 772.686 205.051 773.618 207.123C775.399 211.087 776.473 215.204 777.109 219.494C778.351 227.855 778.541 236.537 782.062 244.375C785.528 252.088 791.669 257.527 799.985 259.329C803.835 260.163 808.16 260.263 812.373 259.692C808.768 258.099 805.405 255.838 802.325 253.455C798.792 250.722 795.202 247.726 792.635 244.032Z" fill="#FFEDE4"/>
</g>
<path d="M744.038 221.924C746.252 224.115 750.253 224.461 752.098 222.035C770.512 197.813 795.399 178.435 826.063 173.808C829.069 173.355 830.583 169.529 829.664 166.596C828.602 163.203 825.443 161.709 822.427 162.164C789.998 167.057 762.909 187.828 743.422 213.46C741.585 215.874 741.576 219.488 744.038 221.924Z" fill="#FFEDE4"/>
<path d="M629.456 269.427C629.968 260.241 630.267 250.919 628.979 241.783C627.657 232.404 624.553 220.73 613.658 220.155C613.623 220.147 613.589 220.139 613.555 220.131C613.555 220.138 613.555 220.144 613.555 220.15C613.139 220.131 612.715 220.125 612.277 220.139C611.567 219.992 610.84 219.904 610.094 219.893C608.753 219.873 607.31 220.173 606.159 220.892C604.563 221.575 603.089 222.646 601.894 223.998C597.648 228.8 597.743 235.53 596.608 241.482C595.355 248.055 592.826 254.6 587.717 259.139C578.596 267.247 565.101 267.847 555.438 260.323C550.242 256.277 547.111 250.49 545.917 244.064C544.751 237.784 545.585 231.667 545.472 225.364C545.423 222.688 544.78 220.227 543.556 218.202C542.221 214.199 537.697 211.44 533.443 211.296C532.96 211.28 532.489 211.3 532.023 211.338C529.616 211.267 527.196 211.708 525.38 212.816C523.309 213.519 521.71 215.138 520.466 217.15C520.394 217.233 520.326 217.321 520.26 217.415C520.159 217.557 520.065 217.701 519.967 217.843C519.595 218.098 519.272 218.468 519.056 218.995C518.96 219.229 518.865 219.464 518.771 219.699C518.669 219.869 518.565 220.039 518.466 220.21C517.943 220.685 517.674 221.245 517.591 221.811C516.089 224.724 515.001 227.809 514.359 231.041C511.81 237.926 509.466 244.887 507.353 251.921C504.124 262.671 500.555 273.931 500.15 285.224C499.477 304.013 510.519 320.054 526.59 329.055C535.721 334.169 546.156 336.802 556.517 337.832C566.195 338.795 576.24 338.721 585.825 336.959C594.415 335.379 603.007 332.268 609.746 326.563C609.863 326.465 609.971 326.361 610.085 326.262C611.566 325.2 612.979 324.045 614.292 322.758C621.079 316.11 624.447 307.341 626.454 298.212C628.526 288.782 628.92 279.038 629.456 269.427Z" fill="#FFEDE4"/>
<path d="M629.456 269.427C629.968 260.241 630.267 250.919 628.979 241.783C627.657 232.405 624.553 220.73 613.657 220.156C613.623 220.148 613.589 220.14 613.554 220.132C613.554 220.138 613.554 220.144 613.554 220.15C613.139 220.131 612.715 220.126 612.277 220.14C611.878 220.057 611.472 219.999 611.062 219.957C604.628 229.595 604.062 241.951 600.12 252.641C596.683 261.96 590.159 270.871 580.38 274.122C569.615 277.699 560.486 272.692 552.414 265.763C544.676 259.122 540.508 251.585 538.532 241.648C537.04 234.144 536.783 225.817 531.284 219.949C529.117 217.636 530.015 213.546 532.33 211.755C532.557 211.579 532.791 211.432 533.028 211.296C532.689 211.299 532.354 211.311 532.023 211.339C529.616 211.267 527.196 211.708 525.38 212.816C523.309 213.52 521.71 215.138 520.465 217.151C520.394 217.234 520.326 217.322 520.259 217.416C520.158 217.558 520.064 217.701 519.966 217.844C519.593 218.099 519.271 218.468 519.054 218.996C518.958 219.23 518.864 219.465 518.769 219.7C518.667 219.87 518.564 220.039 518.464 220.21C517.941 220.685 517.672 221.245 517.589 221.811C516.087 224.724 514.998 227.809 514.358 231.042C511.808 237.927 509.464 244.887 507.351 251.921C504.122 262.671 500.553 273.931 500.148 285.224C499.475 304.013 510.518 320.054 526.588 329.056C535.719 334.17 546.154 336.802 556.515 337.834C566.192 338.797 576.238 338.723 585.823 336.96C594.413 335.38 603.006 332.27 609.745 326.564C609.861 326.466 609.969 326.363 610.083 326.263C611.564 325.202 612.977 324.046 614.29 322.759C621.077 316.111 624.445 307.342 626.452 298.213C628.526 288.782 628.919 279.039 629.456 269.427Z" fill="#FFEDE4"/>
<g opacity="0.1">
<path d="M531.284 219.949C536.783 225.817 534.941 236.076 536.434 243.58C538.41 253.517 542.669 261.351 550.406 267.993C558.479 274.922 571.982 278.697 582.748 275.12C592.526 271.869 599.646 264.405 603.083 255.085C607.024 244.395 604.627 229.595 611.061 219.957C610.742 219.923 610.421 219.899 610.093 219.893C608.752 219.873 607.309 220.173 606.158 220.892C604.563 221.575 603.088 222.646 601.893 223.998C597.648 228.801 597.742 235.529 596.607 241.482C595.354 248.056 592.825 254.6 587.717 259.14C578.595 267.246 565.1 267.847 555.437 260.323C550.241 256.278 547.11 250.49 545.916 244.064C544.75 237.785 545.584 231.667 545.47 225.364C545.422 222.689 544.778 220.228 543.554 218.203C542.219 214.199 537.695 211.44 533.441 211.296C533.302 211.292 533.164 211.296 533.026 211.297C532.79 211.432 532.615 211.769 532.328 211.756C528.744 211.587 529.117 217.636 531.284 219.949Z" fill="#FFEDE4"/>
</g>
<path d="M682.769 243.813C677.827 240.36 670.722 240.063 666.495 235.615C662.69 231.61 662.487 225.263 659.851 220.558C657.331 216.057 652.811 213.027 647.653 212.476C647.315 212.44 646.957 212.419 646.591 212.406C643.71 208.631 638.479 207.117 633.899 206.821C622.806 206.105 612.293 211.429 604.995 219.572C601.375 223.61 598.542 228.465 596.899 233.637C594.806 240.221 594.52 247.617 590.838 253.615C584.123 264.555 566.5 269.815 557.276 258.882C548.785 248.818 549.981 233.169 545.749 221.235C543.529 214.978 539.316 209.581 534.037 205.409C531.489 203.396 528.542 202.014 525.818 200.273C526.918 199.3 527.842 198.118 528.49 196.699C530.409 192.507 528.862 186.704 524.549 184.614C519.728 182.279 514.85 185.529 514.124 190.567C513.723 193.346 514.504 195.97 515.922 198.272C513.958 198.266 511.949 197.855 510.138 197.367C502.929 195.425 493.069 192.261 492.263 183.53C491.937 180.009 486.495 180.787 486.819 184.309C487.354 190.104 491.095 194.741 495.963 197.676C501.411 200.962 508.92 203.576 515.316 203.738C516.991 203.78 518.71 203.585 520.349 203.138C520.791 203.488 521.241 203.822 521.696 204.13C527.115 207.789 532.475 210.199 536.113 215.934C539.668 221.539 541.306 228.153 542.703 234.562C545.247 246.232 547.698 261.259 559.285 267.547C569.587 273.138 582.803 269.996 590.97 262.099C595.242 257.968 597.724 252.875 599.217 247.169C600.899 240.738 601.763 234.197 605.259 228.41C611.079 218.773 622.103 211.343 633.685 212.314C635.356 212.454 637.594 212.799 639.482 213.631C637.306 214.566 635.52 216.077 634.92 218.356C633.642 223.207 638.599 227.517 643.232 226.056C646.855 224.915 648.674 221.619 648.622 218.187C654.249 219.617 656.135 225.461 657.914 230.798C659.952 236.908 663.263 241.177 669.247 243.807C674.255 246.008 685.255 248.283 683.396 255.953C682.564 259.386 688.023 260.054 688.849 256.648C690.106 251.457 686.894 246.697 682.769 243.813ZM519.894 190.202C521.516 187.998 523.573 190.596 523.798 192.254C524.032 193.972 523.115 195.429 521.808 196.465C521.714 196.539 521.616 196.601 521.52 196.67C519.738 194.668 518.428 192.195 519.894 190.202ZM642.774 219.958C641.76 221.168 639.602 220.794 640.835 219.185C641.264 218.624 642.193 218.292 643.183 218.1C643.224 218.729 643.151 219.508 642.774 219.958Z" fill="#FFEDE4"/>
<path d="M630.709 286.463C631.463 285.829 632.222 284.911 632.809 284.142C634.376 282.085 635.34 279.638 635.841 277.12C636.717 272.721 635.519 268.611 633.473 264.751C632.95 263.764 631.995 262.406 631.848 261.523C632.078 261.695 633.298 259.741 633.455 259.528C636.066 255.961 637.625 252.065 637.451 247.597C637.288 243.407 635.322 239.571 631.953 237.045C630.659 236.075 629.163 235.306 627.589 234.645C628.219 237.031 628.653 239.476 628.978 241.783C630.266 250.919 629.968 260.241 629.455 269.427C628.919 279.039 628.526 288.781 626.453 298.212C624.445 307.341 621.077 316.109 614.29 322.758C612.977 324.044 611.564 325.2 610.084 326.261C609.969 326.361 609.861 326.464 609.745 326.562C603.006 332.268 594.413 335.378 585.824 336.958C576.238 338.721 566.193 338.795 556.515 337.832C546.153 336.8 535.719 334.169 526.588 329.054C510.518 320.052 499.475 304.011 500.148 285.222C500.553 273.93 504.122 262.67 507.351 251.919C509.464 244.885 511.808 237.925 514.358 231.04C514.998 227.808 516.087 224.722 517.589 221.809C517.672 221.242 517.941 220.684 518.464 220.208C518.564 220.038 518.667 219.868 518.77 219.698C518.864 219.463 518.958 219.228 519.054 218.994C519.27 218.466 519.593 218.096 519.967 217.841C520.064 217.698 520.159 217.555 520.259 217.413C520.325 217.319 520.394 217.231 520.465 217.148C520.984 216.309 521.568 215.546 522.218 214.881C521.83 214.886 521.431 214.911 521.012 214.98C513.019 216.299 505.573 221.025 506.74 230.183C506.85 231.038 506.99 232.027 507.21 232.951C503.267 234.883 500.43 237.931 499.656 242.365C499.038 245.9 499.926 249.363 501.101 252.679C501.53 253.891 502.186 255.176 502.13 256.381C502.074 256.453 501.955 256.622 501.767 256.901C501.484 257.271 501.185 257.628 500.873 257.973C500.759 258.103 500.668 258.207 500.595 258.291C500.111 258.78 499.598 259.243 499.105 259.723C498.017 260.781 496.889 261.837 495.907 263.001C493.656 265.674 492.317 268.916 492.421 272.426C492.532 276.132 494.314 279.057 496.508 281.911C496.607 282.04 497.292 282.651 497.462 282.868C497.458 282.892 497.455 282.915 497.452 282.936C497.423 282.925 497.385 282.907 497.324 282.871C497.373 282.9 497.413 282.927 497.449 282.952C497.447 282.964 497.445 282.98 497.444 282.99C497.299 283.36 497.125 283.722 496.943 284.075C497.176 283.6 496.229 285.14 496.206 285.173C495.866 285.668 495.51 286.154 495.165 286.646C494.197 288.024 493.293 289.403 492.466 290.873C490.916 293.631 490.032 296.786 490.488 299.971C491.028 303.751 493.345 306.684 496.19 309.072C497.108 309.843 498.356 310.501 498.671 311.194C498.523 311.049 498.569 313.005 498.553 313.486C498.296 321.442 501.151 329.109 508.997 332.445C510.671 333.157 512.543 333.646 514.352 333.835C515.566 333.962 515.479 333.834 516.135 334.349C517.215 335.2 517.938 336.778 518.852 337.828C520.242 339.424 521.831 340.956 523.561 342.186C530.581 347.173 537.961 347.705 546.26 346.937C549.573 346.631 551.589 347.732 554.635 349.188C558.28 350.93 562.027 352.12 566.107 351.842C572.676 351.394 577.66 346.49 582.969 344.319C584.807 343.568 587.888 343.685 590.531 343.702C594.715 343.729 598.622 343.312 602.33 341.205C605.884 339.185 608.319 336.141 609.256 332.149C609.343 331.779 609.449 331.384 609.541 330.985C609.655 330.986 609.745 330.986 609.781 330.986C617.859 331.078 625.252 326.091 626.277 317.609C626.496 315.804 626.264 313.97 625.986 312.188C625.968 312.078 625.894 311.771 625.809 311.402C626.461 311.109 627.095 310.793 627.329 310.705C628.951 310.093 630.519 309.274 631.851 308.156C638.914 302.22 635.215 292.09 630.709 286.463ZM609.733 329.453C609.722 328.271 610.427 328.51 609.733 329.453V329.453ZM630.405 286.702C630.465 286.658 630.526 286.607 630.586 286.56C630.497 287.115 629.425 287.42 630.405 286.702Z" fill="#FFEDE4"/>
<path d="M570.956 326.324C582.428 319.049 593.704 310.758 603.891 301.766C623.63 284.345 629.121 258.02 627.027 232.708C624.947 226.181 621.14 220.551 613.657 220.156C613.622 220.148 613.588 220.14 613.554 220.132C613.554 220.138 613.554 220.144 613.554 220.15C613.138 220.131 612.713 220.126 612.276 220.14C611.566 219.993 610.839 219.905 610.093 219.893C608.752 219.873 607.309 220.173 606.158 220.892C604.563 221.575 603.088 222.646 601.893 223.998C597.648 228.801 597.742 235.53 596.607 241.482C595.354 248.056 592.825 254.6 587.716 259.14C578.595 267.247 565.1 267.848 555.437 260.323C550.241 256.277 547.11 250.49 545.916 244.064C544.75 237.785 545.584 231.667 545.471 225.364C545.422 222.688 544.779 220.228 543.555 218.203C542.22 214.199 537.696 211.44 533.442 211.296C532.959 211.28 532.488 211.301 532.022 211.339C529.615 211.267 527.196 211.709 525.379 212.816C523.308 213.52 521.709 215.137 520.465 217.15C520.394 217.233 520.325 217.321 520.259 217.415C520.159 217.557 520.064 217.7 519.966 217.843C519.593 218.098 519.27 218.467 519.054 218.996C518.958 219.23 518.864 219.465 518.769 219.7C518.667 219.87 518.564 220.039 518.464 220.21C517.94 220.685 517.672 221.245 517.589 221.811C516.087 224.724 514.999 227.809 514.358 231.041C511.808 237.927 509.464 244.887 507.351 251.921C504.122 262.671 500.553 273.931 500.148 285.224C499.475 304.013 510.518 320.054 526.588 329.056C533.655 333.013 541.502 335.48 549.491 336.874C557.027 334.302 564.185 330.617 570.956 326.324Z" fill="#FFEDE4"/>
<g opacity="0.1">
<path d="M603.891 301.766C593.704 310.758 582.428 319.049 570.956 326.324C564.185 330.617 557.028 334.302 549.491 336.874C551.826 337.28 554.172 337.601 556.515 337.834C566.192 338.797 576.238 338.723 585.823 336.96C594.413 335.38 603.006 332.27 609.745 326.564C609.861 326.466 609.969 326.363 610.083 326.263C611.564 325.202 612.977 324.046 614.29 322.76C621.077 316.111 624.445 307.342 626.452 298.214C628.526 288.783 628.919 279.04 629.455 269.429C629.968 260.243 630.266 250.921 628.978 241.785C628.564 238.848 627.975 235.685 627.027 232.709C629.121 258.02 623.63 284.345 603.891 301.766Z" fill="#FFEDE4"/>
</g>
<path d="M348.602 201.733C343.322 193.667 334.934 188.665 328.062 182.152C326.707 180.869 325.416 179.527 324.173 178.142C323.337 176.004 322.728 173.766 322.245 171.515C320.414 162.974 319.933 154.132 316.081 146.144C310.292 134.139 298.29 129.448 285.961 129.683C283.947 129.53 281.937 129.569 279.975 129.853C279.824 129.875 279.678 129.911 279.528 129.935C278.277 129.981 277.03 130.11 275.797 130.33C271.834 131.035 268.322 132.677 265.151 134.875C253.684 141.059 245.888 152.719 246.488 166.338C246.89 175.469 251.487 182.057 258.021 188.019C261.901 191.56 263.845 195.167 262.93 200.542C262.331 204.062 260.704 207.344 258.857 210.449C257.178 212.312 255.416 214.054 253.656 215.639C241.064 226.983 224.234 233.162 207.285 232.221C204.841 232.086 203.602 234.206 203.794 236.08C203.752 236.586 203.85 237.101 204.133 237.567C205.858 240.409 208.166 242.871 210.901 244.789C209.319 243.908 206.76 245.993 206.758 248.006C206.754 250.157 208.43 251.744 209.995 253.098C212.561 255.318 215.126 257.537 217.692 259.757C216.227 259.899 215.315 261.77 215.689 263.115C215.693 263.132 215.702 263.148 215.707 263.165C214.13 264.781 213.609 267.196 215.549 269.453C226.531 282.23 243.227 287.818 259.628 289.256C276.937 290.774 294.644 287.828 310.255 280.08C337.49 266.565 369.328 233.392 348.602 201.733Z" fill="#FFEDE4"/>
<g opacity="0.1">
<path d="M313.096 231.137C312.509 230.357 311.262 230.83 311.008 231.638C310.734 232.504 310.393 233.32 310.002 234.099C308.628 234.901 307.394 235.798 306.165 236.887C305.827 237.186 305.72 237.534 305.762 237.859C305.607 238.08 305.468 238.31 305.352 238.554C305.243 238.48 305.123 238.425 304.992 238.39C304.669 238.129 304.221 238.051 303.736 238.356C302.783 238.953 301.829 239.551 300.876 240.148C299.24 241.057 297.654 242.041 296.105 243.14C295.926 243.267 295.798 243.421 295.707 243.586C294.944 244.061 294.185 244.54 293.417 245.007C291.191 246.123 289.012 247.315 286.882 248.599C286.187 248.879 285.499 249.175 284.817 249.486C282.777 250.242 280.737 250.997 278.697 251.753C278.45 251.367 278.004 251.099 277.42 251.179C274.439 251.587 271.544 252.198 268.651 253.03C268.628 253.037 268.607 253.048 268.584 253.056C267.184 253.327 265.781 253.587 264.376 253.833C263.552 253.827 262.729 253.822 261.905 253.816C258.767 253.519 255.637 253.133 252.514 252.658C252.127 252.599 251.821 252.742 251.606 252.98C251.498 252.963 251.39 252.948 251.282 252.93C251.121 252.904 250.975 252.915 250.842 252.952C248.206 251.5 245.788 249.7 243.7 247.496C242.601 246.337 240.8 248.049 241.903 249.213C244.411 251.859 247.354 253.976 250.577 255.636C250.715 255.794 250.902 255.918 251.149 255.982C251.226 256.002 251.305 256.017 251.382 256.037C262.459 261.408 276.63 261.565 288.041 259.057C298.601 256.736 324.183 245.878 313.096 231.137Z" fill="#FFEDE4"/>
</g>
<path d="M349.46 149.14C347.936 146.354 343.145 146.751 340.606 146.999C332.613 147.777 325.61 149.003 317.912 147.632C317.355 147.416 316.793 147.174 316.22 146.904C315.965 147.003 315.711 147.124 315.534 147.301C314.736 148.096 314.579 149.877 314.505 150.914C314.264 154.287 315.098 157.815 316.248 160.961C317.265 163.744 318.686 165.653 320.906 166.741C322.109 166.261 323.291 165.729 324.437 165.154C326.301 164.815 328.126 164.377 329.847 163.865C334.003 162.626 353.611 156.726 349.46 149.14Z" fill="#FFEDE4"/>
<path d="M310.865 230.625C302.746 238.721 292.852 244.789 281.949 248.353C271.828 251.663 259.101 253.7 248.59 250.994C244.138 249.847 240.288 245.394 244.158 241.293C245.815 239.537 248.154 238.521 250.275 237.458C253.596 235.793 256.78 233.928 259.782 231.771C273.873 234.216 288.135 229.727 298.355 219.733C299.496 218.617 297.586 217.027 296.449 218.138C287.435 226.953 274.947 231.118 262.528 229.665C262.645 229.57 262.763 229.48 262.88 229.384C270.283 223.25 276.119 215.543 280.149 206.828C280.821 205.376 278.574 204.316 277.902 205.77C271.979 218.578 262.038 228.787 249.435 235.12C246.001 236.845 241.71 238.694 240.314 242.612C238.804 246.85 241.697 250.819 245.482 252.557C250.337 254.786 256.684 254.577 261.917 254.406C268.073 254.204 274.198 253.198 280.118 251.509C292.484 247.981 303.679 241.284 312.77 232.219C313.902 231.091 311.992 229.502 310.865 230.625Z" fill="#FFEDE4"/>
<path d="M293.626 152.65C291.964 153.333 291.002 155.14 291.629 156.887L291.722 157.147C292.309 158.778 294.304 159.824 295.96 159.144C297.622 158.462 298.585 156.654 297.957 154.906L297.864 154.647C297.278 153.016 295.282 151.969 293.626 152.65Z" fill="#FFEDE4"/>
<path d="M274.468 190.169C281.713 189.475 288.903 188.211 295.889 186.157C303.398 183.949 310.635 180.956 317.728 177.667C319.566 176.815 321.346 175.89 323.091 174.916C322.769 173.793 322.49 172.656 322.246 171.515C320.413 162.974 319.934 154.132 316.082 146.144C310.292 134.139 298.29 129.448 285.962 129.683C283.947 129.529 281.937 129.569 279.975 129.853C279.825 129.875 279.679 129.911 279.528 129.935C278.278 129.981 277.032 130.109 275.798 130.329C271.835 131.035 268.323 132.677 265.152 134.875C253.684 141.059 245.888 152.719 246.489 166.338C246.891 175.469 251.488 182.057 258.021 188.019C258.652 188.595 259.225 189.172 259.75 189.758C260.955 189.942 262.16 190.139 263.364 190.238C267.063 190.541 270.774 190.524 274.468 190.169Z" fill="#FFEDE4"/>
<path d="M328.062 182.152C327.722 181.83 327.396 181.493 327.064 181.164C324.787 182.453 322.461 183.674 320.034 184.78C313.1 187.942 306.019 190.829 298.725 193.06C291.399 195.301 283.887 196.628 276.274 197.417C272.489 197.808 268.704 198.01 264.9 197.804C264.316 197.772 263.732 197.72 263.148 197.674C263.173 198.575 263.103 199.527 262.93 200.543C262.331 204.062 260.704 207.345 258.857 210.449C257.178 212.312 255.416 214.055 253.656 215.64C241.064 226.984 224.234 233.163 207.285 232.222C204.841 232.086 203.601 234.207 203.793 236.08C203.751 236.586 203.849 237.101 204.132 237.568C205.857 240.41 208.165 242.872 210.9 244.79C209.318 243.909 206.759 245.994 206.757 248.007C206.753 250.158 208.429 251.744 209.994 253.099C212.56 255.318 215.125 257.538 217.692 259.758C216.226 259.899 215.315 261.77 215.689 263.115C215.694 263.133 215.702 263.149 215.707 263.165C214.13 264.782 213.608 267.196 215.549 269.454C226.531 282.231 243.227 287.819 259.628 289.257C276.938 290.774 294.643 287.828 310.255 280.081C337.49 266.565 369.329 233.393 348.602 201.734C343.322 193.667 334.933 188.666 328.062 182.152Z" fill="#FFEDE4"/>
<path d="M276.274 197.416C283.887 196.628 291.399 195.3 298.725 193.06C306.019 190.828 313.1 187.942 320.034 184.78C322.46 183.673 324.787 182.453 327.064 181.163C326.073 180.181 325.104 179.179 324.172 178.141C323.761 177.087 323.404 176.008 323.091 174.915C321.346 175.89 319.566 176.815 317.728 177.667C310.636 180.956 303.398 183.948 295.89 186.156C288.904 188.21 281.713 189.474 274.468 190.168C270.774 190.523 267.063 190.54 263.365 190.238C262.159 190.139 260.955 189.942 259.75 189.758C261.843 192.098 263.063 194.581 263.149 197.672C263.732 197.719 264.317 197.771 264.901 197.802C268.704 198.01 272.489 197.809 276.274 197.416Z" fill="#FFEDE4"/>
<path d="M335.921 174.772C335.053 173.531 334.17 172.301 333.266 171.085C331.837 169.162 330.056 166.51 327.503 166.022C323.917 165.338 322.8 169.796 322.518 173.789C322.196 174.562 322.145 175.573 322.31 176.566C322.117 177.212 322.113 177.882 322.514 178.689C322.517 178.731 322.52 178.776 322.523 178.816C322.546 179.144 322.75 179.362 322.995 179.463C324.288 181.199 326.413 182.212 328.466 182.728C331.249 183.427 340.046 183.576 338.269 178.347C337.839 177.078 336.689 175.871 335.921 174.772Z" fill="#FFEDE4"/>
<path d="M320.553 178.637C316.664 177.815 305.198 176.664 308.314 183.842C309.714 187.069 311.919 189.964 314.607 192.224C316.362 193.7 319.401 196.424 321.773 194.576C324.101 192.763 323.451 188.56 323.056 186.085C322.829 184.668 322.315 181.179 320.991 179.507C321.125 179.157 321.023 178.737 320.553 178.637Z" fill="#FFEDE4"/>
<path d="M322.566 175.33C320.912 175.585 318.368 177.439 317.842 179.114C317.553 180.03 318.107 180.604 318.661 181.269C318.843 181.486 319.028 181.7 319.21 181.916C319.744 182.778 320.449 183.572 320.906 184.095C321.129 184.348 321.349 184.534 321.569 184.673C321.607 184.717 321.645 184.761 321.683 184.805C321.916 185.078 322.216 185.092 322.461 184.969C323.438 185.018 324.389 184.229 325.307 183.382C326.872 181.937 327.729 180.585 326.582 178.568C325.789 177.174 324.447 175.039 322.566 175.33Z" fill="#FFEDE4"/>
<path d="M62.7765 147.085C62.3558 146.186 61.4669 145.585 60.468 145.581L41.5116 145.175L31.0965 129.33C30.5517 128.501 29.5827 128.055 28.5961 128.174C27.6104 128.296 26.7796 128.966 26.4504 129.904L20.2096 147.808L1.92202 152.815C0.963589 153.078 0.237507 153.862 0.0474054 154.837C-0.140936 155.813 0.241027 156.81 1.03136 157.412L16.1295 168.881L15.2406 187.821C15.1939 188.815 15.7149 189.746 16.5836 190.228C16.845 190.373 17.1249 190.468 17.41 190.517C18.0719 190.629 18.7654 190.483 19.3357 190.087L34.9117 179.272L52.6492 185.971C53.5865 186.327 54.6277 186.111 55.3529 185.437C56.0781 184.759 56.3571 183.728 56.0693 182.775L50.5968 164.623L62.4483 149.822C63.0705 149.044 63.1981 147.983 62.7765 147.085Z" fill="#FFEDE4"/>
<path d="M54.9392 185.745C55.0853 185.655 55.2261 185.556 55.3546 185.436C55.6838 185.129 55.9152 184.746 56.049 184.334C55.7788 184.885 55.4057 185.359 54.9392 185.745Z" fill="#FFEDE4"/>
<path d="M31.8418 179.088C33.8422 178.469 35.7573 178.901 37.7419 179.29C39.8595 179.706 41.9919 180.038 44.1385 180.266C46.0043 180.464 47.8772 180.594 49.7535 180.626C49.8248 180.627 49.8961 180.626 49.9665 180.626C49.8785 180.066 49.8495 179.434 49.7703 179.079C48.9377 175.36 47.6915 171.751 46.212 168.243C44.5671 164.344 45.7368 161.976 48.7168 159.252C52.4572 155.833 60.181 151.424 60.665 145.596C60.5999 145.59 60.5356 145.581 60.4688 145.58L41.5123 145.174L31.0972 129.329C30.5524 128.501 29.5834 128.055 28.5968 128.173C27.6111 128.295 26.7803 128.965 26.4511 129.904L20.2104 147.807L1.92275 152.814C0.964323 153.078 0.238239 153.862 0.0481378 154.836C-0.140204 155.812 0.24176 156.809 1.03209 157.411L16.1302 168.881L15.2413 187.82C15.1947 188.814 15.7157 189.745 16.5843 190.227C16.6257 190.25 16.6706 190.264 16.7137 190.285C18.6843 188.627 20.668 186.983 22.6799 185.375C25.4373 183.171 28.3979 180.152 31.8418 179.088Z" fill="#FFEDE4"/>
<g opacity="0.1">
<path d="M56.0702 182.775L50.5977 164.622L62.4491 149.821C63.0705 149.045 63.1981 147.984 62.7765 147.085C62.384 146.246 61.5814 145.673 60.6643 145.597C60.1811 151.425 52.4565 155.834 48.7161 159.253C45.736 161.977 44.5664 164.345 46.2113 168.244C47.6908 171.752 48.937 175.361 49.7695 179.08C49.8488 179.435 49.8778 180.066 49.9658 180.627C49.8945 180.626 49.8241 180.628 49.7528 180.627C47.8773 180.595 46.0036 180.465 44.1378 180.267C41.9912 180.039 39.8587 179.708 37.7412 179.291C35.7566 178.901 33.8415 178.47 31.841 179.089C28.3972 180.154 25.4365 183.172 22.6801 185.376C20.6682 186.985 18.6844 188.628 16.7139 190.286C16.9383 190.395 17.1715 190.477 17.4109 190.518C18.0727 190.631 18.7663 190.484 19.3366 190.088L34.9117 179.273L52.6492 185.971C53.4202 186.264 54.2598 186.164 54.9375 185.746C55.4048 185.36 55.7771 184.886 56.0473 184.335C56.2101 183.837 56.2277 183.295 56.0702 182.775Z" fill="#FFEDE4"/>
</g>
<path d="M994.78 105.753C994.276 105.188 993.495 104.942 992.765 105.158L978.822 108.999L967.753 99.6933C967.173 99.2066 966.368 99.0922 965.673 99.394C964.979 99.6985 964.518 100.37 964.483 101.127L963.83 115.574L951.558 123.225C950.915 123.627 950.555 124.359 950.629 125.112C950.705 125.867 951.201 126.513 951.911 126.779L965.448 131.865L968.934 145.901C969.117 146.637 969.7 147.204 970.441 147.367C970.664 147.415 970.889 147.424 971.108 147.397C971.616 147.335 972.091 147.077 972.421 146.663L981.443 135.358L995.869 136.382C996.632 136.437 997.346 136.053 997.728 135.401C998.11 134.747 998.089 133.933 997.671 133.3L989.708 121.228L995.139 107.824C995.424 107.12 995.285 106.318 994.78 105.753Z" fill="#FFEDE4"/>
<path d="M997.492 135.719C997.579 135.621 997.66 135.517 997.728 135.402C997.901 135.105 997.987 134.775 997.994 134.445C997.918 134.907 997.749 135.334 997.492 135.719Z" fill="#FFEDE4"/>
<path d="M979.159 135.895C980.486 135.006 981.979 134.904 983.515 134.755C985.154 134.596 986.785 134.374 988.403 134.072C989.81 133.81 991.207 133.495 992.584 133.109C992.636 133.094 992.688 133.077 992.74 133.062C992.554 132.672 992.394 132.217 992.259 131.975C990.838 129.438 989.141 127.073 987.293 124.833C985.24 122.342 985.578 120.356 987.161 117.714C989.149 114.399 993.831 109.49 992.912 105.125C992.863 105.136 992.814 105.143 992.765 105.157L978.822 108.999L967.752 99.6925C967.173 99.2058 966.368 99.0914 965.673 99.3933C964.979 99.6978 964.518 100.369 964.483 101.126L963.83 115.573L951.558 123.225C950.914 123.626 950.555 124.358 950.629 125.112C950.705 125.866 951.202 126.512 951.911 126.778L965.448 131.865L968.933 145.9C969.117 146.636 969.7 147.203 970.44 147.366C970.475 147.374 970.512 147.374 970.547 147.38C971.625 145.738 972.716 144.104 973.836 142.489C975.37 140.277 976.875 137.425 979.159 135.895Z" fill="#FFEDE4"/>
<g opacity="0.1">
<path d="M997.671 133.3L989.708 121.228L995.139 107.824C995.423 107.121 995.285 106.318 994.78 105.753C994.31 105.226 993.598 104.982 992.912 105.126C993.831 109.491 989.149 114.4 987.161 117.715C985.578 120.356 985.24 122.342 987.293 124.833C989.141 127.074 990.839 129.439 992.259 131.975C992.395 132.217 992.554 132.672 992.74 133.063C992.688 133.078 992.637 133.095 992.585 133.11C991.206 133.495 989.81 133.81 988.403 134.073C986.785 134.375 985.154 134.597 983.515 134.756C981.979 134.904 980.486 135.007 979.159 135.895C976.874 137.425 975.369 140.277 973.836 142.49C972.717 144.105 971.626 145.738 970.547 147.381C970.734 147.411 970.923 147.42 971.107 147.397C971.614 147.335 972.09 147.077 972.421 146.663L981.443 135.359L995.868 136.382C996.496 136.428 997.087 136.172 997.491 135.718C997.748 135.334 997.917 134.906 997.995 134.444C998.005 134.046 997.9 133.646 997.671 133.3Z" fill="#FFEDE4"/>
</g>
<path d="M484.019 348.643C484.017 348.639 484.016 348.634 484.014 348.63C483.733 348.327 483.439 348.016 483.141 347.7C483.134 347.692 483.127 347.685 483.12 347.677L483.119 347.676C483.099 347.661 483.08 347.645 483.059 347.629C483.032 347.608 483.006 347.587 482.979 347.567C482.256 347.3 481.527 347.048 480.787 346.839C480.811 346.854 480.829 346.869 480.852 346.884C479.392 346.458 477.911 346.124 476.421 345.924C469.783 345.029 463.133 344.127 456.488 343.278C453.402 342.883 450.306 342.56 447.208 342.348H447.208C446.584 342.305 445.96 342.275 445.336 342.242C445.351 342.24 445.366 342.239 445.381 342.237C445.193 342.227 445.005 342.222 444.816 342.213C444.698 342.208 444.579 342.198 444.461 342.193C444.4 342.19 444.339 342.187 444.279 342.184C444.107 342.177 443.935 342.175 443.765 342.168C443.223 342.147 442.683 342.131 442.143 342.119C442.025 342.116 441.906 342.11 441.787 342.108C441.646 342.106 441.505 342.1 441.365 342.099C441.262 342.097 441.16 342.1 441.058 342.099C440.48 342.092 439.903 342.094 439.325 342.099C439.243 342.1 439.162 342.098 439.08 342.099C438.891 342.1 438.702 342.099 438.513 342.101C438.473 342.102 438.433 342.105 438.393 342.105C437.507 342.122 436.621 342.148 435.735 342.194C432.838 342.343 429.993 342.295 427.088 342.267C426.522 342.262 425.957 342.279 425.392 342.308C425.374 342.309 425.356 342.308 425.337 342.309C425.202 342.316 425.067 342.327 424.931 342.335C424.745 342.346 424.558 342.361 424.372 342.373C424.203 342.385 424.033 342.394 423.864 342.406C423.859 342.407 423.855 342.408 423.851 342.409C423.308 342.448 422.765 342.486 422.223 342.523C422.204 342.524 422.185 342.526 422.164 342.527C421.811 342.551 421.456 342.566 421.102 342.582C420.724 342.599 420.347 342.622 419.968 342.626C410.581 344.644 410.122 346.528 408.23 350.218C405.818 354.922 405.033 379.5 380.123 387.756C355.212 396.011 345.99 359.218 333.043 365.019C325.071 368.591 319.104 371.553 314.806 374.33C312.133 375.963 309.638 377.915 307.167 379.904C302.234 383.874 296.839 387.439 291.512 390.84C288.84 392.546 286.188 394.24 283.696 396.213C282.346 397.282 280.327 398.305 279.51 399.898C278.501 401.863 279.704 404.611 280.25 406.49C281.279 410.029 282.558 413.487 283.764 416.967C285.915 423.174 288.179 429.579 290.881 435.562C292.582 439.329 295.103 441.096 299.239 440.91C308.224 440.506 316.442 436 324.583 431.805C335.776 461.937 344.209 502.593 345.187 515.25C346.388 530.769 367.712 512.679 388.943 535.575C410.175 558.47 409.946 560.068 431.471 554.382C452.998 548.697 446.459 518.957 453.624 507.339C460.789 495.722 477.817 493.3 482.652 483.941C487.136 475.262 462.987 434.622 456.212 394.744C462.136 393.255 468.093 391.993 474.125 390.867C479.447 389.873 484.348 389.563 485.222 381.865C486.086 374.258 486.17 366.003 485.504 357.98C485.508 357.847 485.522 357.722 485.523 357.587C485.53 355.893 485.592 353.739 485.468 351.664C485.295 351.032 485.139 350.4 484.986 349.783C484.684 349.39 484.357 349.016 484.019 348.643Z" fill="#FFEDE4"/>
<path d="M460.896 489.724C454.775 495.278 450.382 503.855 447.045 511.72C443.631 519.766 442.323 528.594 442.233 537.584C442.224 538.417 442.471 542.246 442.754 546.613C450.623 535.349 448.193 516.143 453.623 507.34C460.788 495.723 477.815 493.3 482.65 483.942C483.401 482.488 483.347 480.137 482.708 477.047C474.672 478.594 466.962 484.22 460.896 489.724Z" fill="#FFEDE4"/>
<path d="M390.479 390.88C400.717 385.423 406.383 374.016 410.068 362.656C412.021 356.632 413.82 350.394 414.826 344.008C410.302 345.598 409.69 347.369 408.229 350.22C405.818 354.923 405.033 379.502 380.121 387.757C355.21 396.012 345.988 359.219 333.041 365.02C333.022 365.029 333.003 365.038 332.984 365.047C346.914 383.887 368.704 402.486 390.479 390.88Z" fill="#FFEDE4"/>
<path d="M392.354 528.291C384.618 520.613 377.514 516.609 367.429 514.827C363.604 514.151 359.578 513.318 355.73 513.557C352.15 513.78 348.72 514.908 345.259 515.837C346.975 530.266 367.996 512.988 388.941 535.574C401.765 549.405 406.763 555.456 413.452 556.832C412.231 554.627 411.059 552.368 409.836 550.128C405.208 541.647 399.013 534.9 392.354 528.291Z" fill="#FFEDE4"/>
<path d="M447.208 342.348C443.384 342.086 439.555 341.997 435.735 342.194C432.837 342.344 429.992 342.296 427.088 342.267C424.709 342.245 422.352 342.605 419.985 342.627C419.392 342.755 418.823 342.882 418.298 343.009C417.162 351.81 414.507 360.427 411.547 368.38C407.217 380.015 400.43 390.475 389.473 395.282C366.489 405.365 344.295 385.935 329.999 366.402C297.944 381.11 302.098 385.579 316.616 413.416C330.757 440.533 342.61 493.475 344.882 512.308C347.809 511.527 350.711 510.642 353.722 510.252C358.256 509.664 362.835 510.529 367.371 511.319C375.107 512.666 382.253 514.807 388.633 520.255C395.903 526.464 403.203 533.876 408.711 541.992C411.968 546.791 414.397 552.169 417.317 557.143C420.928 557.038 425.305 556.012 431.47 554.384C434.786 553.508 437.431 552.058 439.569 550.195C439.21 545.953 438.983 541.704 439.023 537.467C439.109 528.248 440.433 519.15 443.817 510.842C447.518 501.753 452.637 492.187 459.866 486.059C466.236 480.66 473.634 475.151 481.849 473.622C476.681 455.366 458.174 419.177 454.957 385.395C452.439 358.976 452.348 346.911 447.208 342.348Z" fill="#FFEDE4"/>
<path d="M389.473 395.281C400.431 390.474 407.217 380.015 411.547 368.379C414.507 360.427 417.161 351.81 418.298 343.009C416.933 343.339 415.79 343.669 414.826 344.007C413.82 350.393 412.021 356.632 410.067 362.656C406.383 374.014 400.716 385.422 390.479 390.879C368.704 402.486 346.915 383.887 332.984 365.046C331.954 365.507 330.962 365.958 329.999 366.4C344.295 385.935 366.489 405.364 389.473 395.281Z" fill="#FFEDE4"/>
<path d="M388.634 520.255C382.254 514.806 375.108 512.665 367.372 511.318C362.836 510.528 358.257 509.663 353.723 510.251C350.712 510.642 347.81 511.527 344.883 512.308C345.015 513.401 345.12 514.401 345.186 515.252C345.202 515.462 345.236 515.642 345.26 515.839C348.721 514.91 352.151 513.781 355.731 513.559C359.578 513.319 363.605 514.153 367.43 514.829C377.516 516.611 384.618 520.614 392.355 528.293C399.014 534.902 405.208 541.648 409.838 550.13C411.06 552.37 412.232 554.629 413.454 556.835C414.667 557.085 415.937 557.184 417.319 557.144C414.399 552.169 411.97 546.792 408.713 541.993C403.204 533.875 395.904 526.463 388.634 520.255Z" fill="#FFEDE4"/>
<path d="M447.045 511.721C450.382 503.855 454.775 495.278 460.896 489.725C466.962 484.22 474.672 478.595 482.708 477.049C482.491 475.996 482.193 474.84 481.848 473.622C473.634 475.152 466.235 480.66 459.865 486.06C452.636 492.188 447.517 501.754 443.816 510.843C440.432 519.151 439.108 528.248 439.022 537.468C438.982 541.705 439.209 545.954 439.568 550.195C440.79 549.13 441.838 547.924 442.754 546.614C442.471 542.247 442.224 538.419 442.233 537.585C442.323 528.595 443.631 519.766 447.045 511.721Z" fill="#FFEDE4"/>
<path d="M345.195 515.332C345.555 519.681 347.52 521.362 350.631 522.05C350.025 521.381 349.42 520.708 348.833 519.991C347.584 518.466 346.377 516.908 345.195 515.332Z" fill="#FFEDE4"/>
<path d="M415.175 557.09C411.382 555.686 407.788 553.789 404.285 551.589C408.207 555.083 411.321 556.754 415.175 557.09Z" fill="#FFEDE4"/>
<path d="M284.168 405.66C283.22 403.125 282.083 400.555 281.335 397.914C280.586 398.489 279.904 399.126 279.507 399.9C278.499 401.864 279.702 404.613 280.247 406.492C281.276 410.031 282.555 413.489 283.762 416.969C285.913 423.176 288.176 429.58 290.878 435.563C292.503 439.16 294.891 440.913 298.704 440.904C295.449 434.56 292.681 427.887 290.082 421.283C288.043 416.103 286.119 410.875 284.168 405.66Z" fill="#FFEDE4"/>
<path d="M484.019 348.643C484.017 348.639 484.016 348.634 484.015 348.63C483.733 348.327 483.439 348.016 483.141 347.7C483.134 347.692 483.127 347.685 483.12 347.677L483.119 347.676C483.099 347.661 483.08 347.645 483.06 347.629C483.032 347.608 483.006 347.587 482.98 347.567C482.256 347.3 481.527 347.048 480.787 346.839C480.811 346.854 480.829 346.869 480.852 346.884C480.689 346.836 480.521 346.803 480.358 346.757C481.479 354.99 481.065 363.812 480.807 371.812C480.638 377.065 480.539 382.345 480.219 387.586C480.181 388.201 480.148 388.828 480.116 389.463C482.738 388.416 484.7 386.461 485.222 381.868C486.086 374.261 486.17 366.006 485.505 357.983C485.508 357.85 485.522 357.725 485.523 357.589C485.53 355.895 485.593 353.741 485.468 351.666C485.295 351.034 485.139 350.402 484.986 349.785C484.684 349.39 484.358 349.016 484.019 348.643Z" fill="#FFEDE4"/>
<path d="M477.309 371.731C477.572 363.562 478.046 354.336 476.721 345.977C476.621 345.962 476.521 345.938 476.421 345.923C469.783 345.029 463.133 344.127 456.488 343.278C453.402 342.883 450.307 342.56 447.209 342.348H447.208C446.584 342.304 445.96 342.275 445.337 342.242C445.352 342.24 445.367 342.238 445.382 342.237C445.193 342.227 445.005 342.222 444.817 342.213C444.698 342.208 444.579 342.198 444.461 342.193C444.4 342.19 444.339 342.187 444.279 342.184C444.107 342.177 443.936 342.175 443.765 342.168C443.224 342.147 442.683 342.131 442.143 342.119C442.025 342.116 441.906 342.11 441.787 342.108C441.646 342.106 441.506 342.1 441.365 342.099C441.263 342.097 441.161 342.099 441.058 342.099C440.48 342.091 439.903 342.094 439.325 342.099C439.243 342.099 439.162 342.098 439.08 342.099C438.891 342.1 438.702 342.099 438.513 342.101C438.474 342.102 438.433 342.105 438.394 342.105C437.507 342.121 436.621 342.148 435.736 342.194C432.838 342.343 429.993 342.295 427.089 342.267C426.522 342.261 425.957 342.279 425.392 342.308C425.374 342.309 425.356 342.308 425.337 342.309C425.202 342.316 425.067 342.326 424.932 342.334C424.745 342.346 424.558 342.361 424.372 342.373C424.203 342.385 424.033 342.393 423.864 342.406C423.86 342.407 423.855 342.408 423.852 342.409C423.309 342.448 422.766 342.486 422.223 342.523C422.204 342.524 422.185 342.525 422.165 342.527C421.811 342.551 421.456 342.566 421.102 342.582C420.725 342.599 420.347 342.622 419.969 342.626C410.582 344.644 410.122 346.528 408.23 350.218C405.818 354.922 405.033 379.5 380.123 387.755C355.212 396.011 345.99 359.218 333.043 365.019C325.071 368.591 319.104 371.553 314.806 374.33C312.134 375.963 309.638 377.915 307.167 379.904C302.234 383.874 296.839 387.439 291.512 390.84C289.063 392.403 286.638 393.966 284.331 395.734C285.092 399.678 287.148 403.725 288.496 407.31C290.135 411.672 291.743 416.049 293.452 420.384C296.139 427.2 299.038 434.089 302.482 440.586C310.221 439.413 317.433 435.489 324.584 431.804C335.777 461.936 344.21 502.593 345.188 515.249C346.389 530.769 367.713 512.679 388.944 535.574C410.176 558.47 409.947 560.068 431.472 554.382C452.999 548.697 446.461 518.956 453.625 507.339C460.79 495.722 477.818 493.3 482.653 483.941C487.137 475.262 462.988 434.622 456.213 394.743C462.137 393.255 468.094 391.993 474.126 390.867C474.978 390.707 475.817 390.564 476.633 390.406C476.723 388.544 476.764 386.695 476.835 384.939C477.009 380.54 477.166 376.135 477.309 371.731Z" fill="#FFEDE4"/>
<path d="M288.493 407.311C287.146 403.727 285.09 399.68 284.328 395.735C284.117 395.897 283.902 396.05 283.693 396.215C282.999 396.765 282.129 397.305 281.335 397.914C282.083 400.555 283.22 403.125 284.168 405.66C286.119 410.875 288.042 416.103 290.082 421.282C292.681 427.886 295.449 434.56 298.704 440.903C298.884 440.903 299.05 440.92 299.236 440.911C300.328 440.862 301.409 440.75 302.479 440.588C299.034 434.091 296.135 427.201 293.448 420.386C291.74 416.051 290.133 411.674 288.493 407.311Z" fill="#FFEDE4"/>
<path d="M480.806 371.813C481.064 363.812 481.478 354.991 480.357 346.758C479.155 346.426 477.942 346.157 476.721 345.978C478.046 354.337 477.572 363.563 477.309 371.733C477.167 376.137 477.01 380.541 476.832 384.942C476.762 386.699 476.72 388.547 476.63 390.409C477.869 390.171 479.045 389.89 480.114 389.464C480.146 388.829 480.18 388.202 480.217 387.587C480.538 382.346 480.637 377.066 480.806 371.813Z" fill="#FFEDE4"/>
<path d="M484.019 348.643C484.017 348.638 484.016 348.634 484.014 348.63C483.733 348.327 483.439 348.016 483.141 347.699C483.134 347.691 483.127 347.684 483.12 347.676L483.119 347.676C483.099 347.661 483.08 347.645 483.06 347.629C483.032 347.608 483.006 347.587 482.979 347.566C482.256 347.3 481.527 347.048 480.787 346.839C480.81 346.854 480.829 346.869 480.852 346.884C479.392 346.458 477.911 346.124 476.421 345.923C469.783 345.029 463.133 344.127 456.488 343.277C453.402 342.883 450.307 342.559 447.209 342.347H447.208C446.584 342.304 445.96 342.274 445.337 342.241C445.352 342.239 445.367 342.237 445.382 342.236C445.194 342.226 445.006 342.221 444.817 342.212C444.699 342.207 444.58 342.197 444.462 342.192C444.401 342.189 444.34 342.186 444.28 342.183C444.108 342.176 443.936 342.174 443.766 342.167C443.224 342.146 442.684 342.13 442.144 342.118C442.026 342.115 441.907 342.109 441.788 342.107C441.647 342.105 441.506 342.099 441.366 342.098C441.264 342.096 441.162 342.098 441.059 342.098C440.481 342.091 439.904 342.093 439.326 342.098C439.244 342.098 439.163 342.097 439.081 342.098C438.892 342.099 438.703 342.098 438.514 342.1C438.475 342.101 438.434 342.104 438.394 342.104C437.508 342.12 436.622 342.147 435.737 342.193C432.839 342.342 429.994 342.294 427.09 342.266C426.523 342.26 425.958 342.278 425.393 342.307C425.375 342.308 425.357 342.307 425.338 342.308C425.203 342.315 425.068 342.325 424.932 342.333C424.746 342.345 424.559 342.36 424.373 342.372C424.204 342.384 424.034 342.392 423.865 342.405C423.86 342.406 423.856 342.407 423.853 342.408C423.31 342.447 422.767 342.485 422.224 342.522C422.205 342.523 422.186 342.524 422.165 342.526C421.812 342.55 421.457 342.565 421.103 342.581C420.726 342.599 420.348 342.621 419.97 342.625C410.582 344.643 410.123 346.527 408.231 350.217C405.819 354.921 405.034 379.499 380.124 387.754C355.213 396.01 345.991 359.217 333.044 365.018C329.268 366.71 325.956 368.261 323.045 369.725C323.328 370.961 323.614 372.196 323.911 373.429C326.603 384.625 329.59 395.754 332.415 406.918C334.89 416.705 337.864 426.144 341.994 435.36C345.924 444.133 350.832 452.21 355.891 460.365C360.86 468.376 366.019 475.093 372.99 481.52C379.64 487.652 385.702 491.84 393.308 497.037C401.135 502.386 409.222 506.598 417.819 510.55C422.461 512.686 426.836 515.266 431.367 517.614C434.743 519.364 438.393 520.545 442.297 521.916C444.646 522.742 446.997 523.558 449.351 524.363C450.291 517.675 451.122 511.398 453.626 507.337C460.791 495.72 477.819 493.298 482.654 483.939C487.138 475.26 462.989 434.62 456.214 394.742C462.138 393.253 468.094 391.991 474.127 390.865C479.448 389.871 484.35 389.561 485.224 381.863C486.088 374.256 486.172 366.001 485.506 357.978C485.51 357.845 485.524 357.72 485.525 357.585C485.532 355.89 485.594 353.738 485.47 351.662C485.297 351.03 485.141 350.398 484.988 349.781C484.684 349.391 484.358 349.016 484.019 348.643Z" fill="#FFEDE4"/>
<g opacity="0.05">
<path d="M431.363 517.618C426.833 515.27 422.457 512.689 417.815 510.554C409.219 506.601 401.133 502.388 393.304 497.041C385.698 491.844 379.636 487.656 372.986 481.524C366.016 475.097 360.857 468.38 355.888 460.369C350.828 452.214 345.92 444.136 341.99 435.363C337.86 426.147 334.887 416.708 332.411 406.921C329.587 395.758 326.6 384.629 323.907 373.433C323.611 372.2 323.324 370.964 323.041 369.728C319.805 371.355 317.065 372.87 314.804 374.332C312.131 375.966 309.636 377.918 307.164 379.907C302.231 383.876 296.836 387.441 291.509 390.843C288.837 392.549 286.185 394.243 283.693 396.216C282.344 397.284 280.325 398.308 279.507 399.901C278.499 401.865 279.702 404.614 280.247 406.493C281.276 410.032 282.555 413.489 283.762 416.969C285.913 423.177 288.176 429.581 290.878 435.564C292.579 439.331 295.101 441.098 299.236 440.913C308.221 440.509 316.441 436.002 324.581 431.807C335.774 461.939 344.206 502.595 345.185 515.252C346.385 530.772 367.709 512.681 388.941 535.577C410.172 558.473 409.943 560.07 431.469 554.385C445.47 550.687 447.598 536.813 449.347 524.367C446.993 523.562 444.642 522.746 442.293 521.92C438.389 520.548 434.74 519.367 431.363 517.618Z" fill="#FFEDE4"/>
</g>
<path d="M441.993 412.91C441.448 410.988 440.962 408.842 440.333 406.848C440.225 406.389 440.126 405.929 440.014 405.469C439.158 401.972 437.746 402.283 434.621 402.762C430 403.47 425.499 404.756 420.982 405.925C417.329 406.87 413.509 408.065 410.045 409.523C407.272 410.69 409.164 415.02 409.781 417.444C411.472 424.085 413.566 432.354 418.159 437.953C419.812 440.225 421.968 442.484 424.158 443.313C427.887 444.724 432.157 443.3 435.582 441.807C438.564 440.506 442.695 438.226 443.882 434.729C444.51 432.878 444.225 430.268 444.15 428.318C444.067 426.111 443.901 423.889 443.465 421.717C443.337 418.746 442.781 415.689 441.993 412.91Z" fill="#FFEDE4"/>
</g>
</svg>
