<svg width="49" height="48" viewBox="0 0 49 48" fill="none" xmlns="http://www.w3.org/2000/svg">
<path d="M8.32661 38.0058C8.31782 35.892 9.14901 33.8613 10.6374 32.3604C12.1258 30.8595 14.1495 30.0113 16.2632 30.0024C16.2855 30.0024 16.3077 30.0024 16.33 30.0024H20.9541" stroke="white" stroke-width="1.5" stroke-linecap="round" stroke-linejoin="round"/>
<path fill-rule="evenodd" clip-rule="evenodd" d="M26.3342 32.9846C26.4312 34.9867 27.2294 36.8909 28.5891 38.3636C29.6751 39.6251 30.971 40.6894 32.4195 41.5094C33.6809 42.2131 35.2268 42.1676 36.4446 41.3908C37.7575 40.5516 38.938 39.5213 39.9472 38.334C41.332 36.8762 42.1766 34.9886 42.341 32.9846C42.3504 31.7924 41.9047 30.6414 41.0946 29.7667C40.316 28.9184 39.2202 28.4315 38.0689 28.4221C36.6233 28.321 35.2263 28.9656 34.3651 30.1311L34.3377 30.1713L34.31 30.1311C33.5264 29.0284 32.2455 28.3877 30.8932 28.4221C29.6772 28.4014 28.5051 28.8756 27.6455 29.7359C26.7859 30.5961 26.3126 31.7687 26.3342 32.9846Z" stroke="white" stroke-width="1.5" stroke-linecap="round" stroke-linejoin="round"/>
<ellipse cx="24.3334" cy="14.496" rx="8.50354" ry="8.50354" stroke="white" stroke-width="1.5" stroke-linecap="round" stroke-linejoin="round"/>
</svg>
