<svg width="25" height="24" viewBox="0 0 25 24" fill="none" xmlns="http://www.w3.org/2000/svg">
<path fill-rule="evenodd" clip-rule="evenodd" d="M8.23122 20.8327C7.72415 21.0973 7.11071 21.0507 6.64944 20.7125C6.18817 20.3742 5.95931 19.8032 6.05932 19.24L6.86865 14.6011L3.46124 11.3357C3.04474 10.9385 2.8921 10.3381 3.06833 9.79022C3.24456 9.24234 3.71862 8.84352 4.28858 8.76363L9.01955 8.08735L11.1554 3.82658C11.4087 3.31558 11.9297 2.99231 12.5 2.99231C13.0703 2.99231 13.5913 3.31558 13.8446 3.82658L15.9804 8.08735L20.7114 8.76363C21.2814 8.84352 21.7554 9.24234 21.9317 9.79022C22.1079 10.3381 21.9553 10.9385 21.5388 11.3357L18.1313 14.6011L18.9407 19.241C19.0407 19.8042 18.8118 20.3752 18.3506 20.7135C17.8893 21.0517 17.2759 21.0983 16.7688 20.8337L12.5 18.6277L8.23122 20.8327Z" fill="#FFC56E"/>
</svg>
