<svg xmlns="http://www.w3.org/2000/svg" viewBox="83.5 76.71999740600586 375.6200051879883 359.4200034332275"> <svg xmlns="http://www.w3.org/2000/svg" id="Layer_1" dataName="Layer 1" viewBox="15.94577693939209 81.64026641845703 480.14532470703125 348.67852783203125" height="167.015625" width="230" y="146.71999740600586" x="153.5" preserveAspectRatio="xMinYMin" style="overflow: visible;"><path d="M86.41,119.45c.48-1.15,.9-2.08,1.26-3.03,3.37-8.86,8.39-16.68,14.42-23.97,10.08-12.18,26.96-13.59,38.91-6.62,10.07,5.88,15.79,14.57,17.65,25.95,1.78,10.93-.09,21.42-3.89,31.66-4.11,11.07-10.04,21.17-17.03,30.61-6.77,9.13-13.87,18.02-20.82,27.01-.69,.89-1.36,1.78-2.15,2.81,4.15,4.51,8.24,8.96,12.49,13.58,.57-.82,1.12-1.57,1.64-2.34,4.37-6.36,8.51-12.89,13.14-19.06,11.45-15.27,25.1-28.28,41.1-38.73,7.58-4.95,15.56-9.13,24.4-11.42,4.39-1.14,8.83-1.81,13.39-1.03,7.46,1.27,12.03,5.8,14.32,12.78,1.63,4.98,1.33,10.13,.72,15.23-1.41,11.76-4.57,23.13-7.86,34.46-.67,2.31-1.36,4.62-1.7,7.11,.5-.66,1-1.31,1.5-1.97,6.24-8.23,12.32-16.58,18.76-24.64,5.39-6.75,11.89-12.39,19.23-17,6.76-4.25,13.95-7.42,21.97-8.27,11.22-1.18,20.08,2.98,26.27,12.37,3.89,5.9,6.43,12.48,8.56,19.2,.39,1.23,.77,2.45,1.27,4.04,.88-.94,1.59-1.66,2.26-2.41,8.47-9.56,17.52-18.54,27.12-26.97,14.03-12.32,30.14-20.27,48.56-23.5,7.05-1.23,14.1-1.73,21.21-.41,10.08,1.88,17.65,7.3,22.93,16.02,3.68,6.09,5.87,12.75,7.3,19.67,3.02,14.63,3.48,29.43,2.79,44.31-1.07,23.06-5.1,45.67-9.79,68.2-3.77,18.09-7.66,36.15-10.49,54.42-1.72,11.15-3.35,22.31-3.99,33.59-.32,5.74-.27,11.46,1.3,17.06,1.5,5.36,4.59,9.25,10.11,10.93,3.22,.98,6.43,.55,9.5-.29,3.24-.88,6.51-1.98,9.45-3.56,14.16-7.59,23.81-19.11,29.08-34.29,.45-1.31,.89-2.63,1.27-3.97,.35-1.25,.62-2.52,1.07-4.38,.43,1.02,.73,1.55,.88,2.11,2.01,7.61,2,15.28,.49,22.96-2.12,10.79-6.73,20.38-14.11,28.58-1.15,1.28-2.42,2.52-3.82,3.51-11.55,8.24-24.25,12.33-38.49,9.83-15.23-2.67-24.25-11.63-27.41-26.84-1.52-7.27-1.79-14.63-1.35-22.02,.57-9.55,1.92-19.01,4.13-28.3,3.68-15.44,7.53-30.83,11.4-46.22,4.75-18.94,9.09-37.96,12.13-57.26,1.76-11.16,3.03-22.37,2.76-33.69-.23-9.4-1.21-18.71-4.17-27.7-1.47-4.48-3.45-8.71-6.76-12.19-2.13-2.24-4.64-3.87-7.57-4.9-9.46-3.32-18.93-2.92-28.4-.14-10.13,2.97-19.13,8.1-27.46,14.49-8.93,6.84-16.76,14.83-24.14,23.28-3.82,4.38-7.44,8.94-11.21,13.36-1.03,1.21-1.42,2.39-1.18,4.01,1.27,8.77,1.79,17.6,1.82,26.47,.05,16.41-2.59,32.32-9.01,47.49-4.57,10.8-10.42,20.85-18.92,29.03-6.65,6.4-14.77,10.04-24.08,10.34-6.7,.21-11.84-2.9-15.37-8.58-2.72-4.38-3.84-9.27-4.19-14.35-.66-9.58,1.09-18.84,3.89-27.94,2.71-8.83,6.54-17.17,11.01-25.24,7.96-14.39,17.09-27.99,27.27-40.89,2.85-3.61,5.95-7.01,8.94-10.5,.56-.65,1.14-1.28,1.84-2.07-2.62-7.47-5.74-14.56-12.21-19.57-5.91-4.57-12.51-5.69-19.67-3.72-4.48,1.23-8.55,3.35-12.4,5.89-7.24,4.78-13.48,10.69-18.69,17.58-4.87,6.43-9.48,13.06-13.98,19.75-9.1,13.54-18.07,27.17-27.03,40.8-.88,1.35-1.48,2.94-1.94,4.5-5.28,18.08-11.08,35.98-18.31,53.38-6,14.43-12.61,28.57-20.64,42.01-4.69,7.85-9.96,15.27-16.54,21.67-6.96,6.77-14.93,11.84-24.47,14.17-4.11,1-8.23,1.13-12.35-.06-8.4-2.41-13.38-8.93-13.35-17.68,.02-5.44,1.11-10.68,3.28-15.69,3.41-7.87,8.03-15.01,13.57-21.5,5.57-6.53,11.48-12.78,17.17-19.22,10-11.32,19.94-22.68,29.9-34.03,.74-.85,1.41-1.77,2.18-2.59,9.66-10.17,17.36-21.86,25.78-33,4.11-5.44,6.92-11.2,8.29-17.92,2.5-12.23,5.56-24.35,8.22-36.55,1.35-6.2,2.16-12.52,1.28-18.88-.34-2.46-1.01-4.95-1.98-7.23-1.76-4.15-5.79-6.08-10.24-5.26-3.28,.61-6.38,1.8-9.11,3.69-16.45,11.42-31.99,23.89-44.72,39.51-2.68,3.29-5.18,6.72-7.84,10.17,1.04,1.45,1.93,2.7,2.84,3.95,5.19,7.16,8.66,15.01,9.46,23.9,.37,4.12-.2,8.15-1.86,11.97-3.85,8.86-13.9,11.84-21.95,6.51-3.72-2.46-6.4-5.84-8.25-9.86-3.54-7.7-4.45-15.68-1.78-23.81,1.3-3.94,3.08-7.72,4.66-11.57,.42-1.03,.94-2.02,1.49-3.18-4.7-4.59-9.4-9.02-15.06-12.86-12.63,15.73-21.96,32.43-21.54,53.41-.53-.82-1.14-1.6-1.57-2.47-2.29-4.72-3.05-9.75-2.83-14.93,.41-9.33,3.16-18.09,6.84-26.56,2.38-5.48,5.15-10.79,7.9-16.48-.61-.36-1.36-.91-2.19-1.27-7.39-3.22-14.73-6.56-22.2-9.58-9.66-3.91-19.29-7.84-28.29-13.14-5.63-3.31-10.96-7.02-15.53-11.74-4.59-4.75-8.2-10.1-9.88-16.58-2.19-8.47-.97-16.63,3.1-24.22,7.87-14.64,20.27-22.56,36.88-23.26,9.24-.39,17.53,2.9,24.95,8.36,1.45,1.07,2.88,2.16,4.47,3.36Zm16.87,75.1c.34-.47,.7-.95,1.03-1.44,3.8-5.6,7.56-11.22,11.4-16.79,4.04-5.86,8.27-11.58,12.2-17.51,4.97-7.49,8.79-15.54,11.16-24.24,1.65-6.07,2.65-12.21,1.85-18.52-.83-6.5-3.56-11.91-9.14-15.66-2.96-1.98-6.08-2.67-9.64-1.83-3.67,.87-6.75,2.64-9.46,5.17-3.84,3.57-7.08,7.62-9.75,12.13-3.87,6.53-6.7,13.51-8.87,20.76-.29,.97-.6,1.93-.89,2.87-.34-.08-.44-.08-.5-.13-.19-.17-.39-.34-.56-.53-6.09-7.02-13.74-11.65-22.57-14.25-7.91-2.33-15.8-2.08-23.29,1.73-6.06,3.08-10.25,7.84-11.35,14.67-1.41,8.7,.96,16.54,6.64,23.25,3.4,4.02,7.65,7.09,12.35,9.4,4.89,2.41,9.89,4.64,14.94,6.69,11.25,4.56,22.69,8.63,33.58,14.03,.22,.11,.49,.11,.85,.19Zm80.43,108.23c-.11-.08-.21-.16-.32-.24-2.59,2.53-5.12,5.14-7.78,7.58-13.57,12.44-26.64,25.38-38.43,39.55-2.99,3.59-5.66,7.46-8.29,11.32-1.73,2.55-2.58,5.48-2.51,8.61,.09,4.16,3.22,6.68,7.18,5.44,2.02-.63,4.07-1.7,5.64-3.09,3.16-2.82,6.18-5.84,8.93-9.06,14.8-17.29,26.11-36.71,34.73-57.74,.32-.78,.57-1.59,.86-2.39Zm132.64-62.32c-.77,.99-1.17,1.45-1.51,1.95-5.14,7.52-10.38,14.98-15.37,22.6-5.57,8.49-10.76,17.21-14.99,26.48-2.02,4.43-3.86,8.93-4.74,13.74-.31,1.69-.45,3.45-.36,5.17,.11,2.25,1.04,2.97,3.26,2.42,1.65-.4,3.4-1,4.74-2,2.77-2.06,5.51-4.24,7.89-6.73,5.09-5.32,8.74-11.63,11.69-18.35,5.68-12.94,8.5-26.55,9.38-40.61,.08-1.35,.01-2.71,.01-4.66Zm-184.34,.09c-1.76,5.45-2.21,10.89-.62,16.33,.34,1.18,1.11,2.39,2.02,3.2,1.76,1.58,3.86,.77,4.1-1.58,.17-1.69,0-3.45-.26-5.14-.7-4.66-2.54-8.88-5.24-12.81Z" style="fill: #bd4c88;"></path><path class="cls-1" d="M103.27,194.55c-.36-.08-.63-.08-.85-.19-10.89-5.4-22.34-9.47-33.58-14.03-5.06-2.05-10.05-4.28-14.94-6.69-4.7-2.31-8.96-5.38-12.35-9.4-5.68-6.71-8.04-14.55-6.64-23.25,1.1-6.82,5.29-11.58,11.35-14.67,7.49-3.81,15.38-4.06,23.29-1.73,8.82,2.6,16.47,7.23,22.57,14.25,.17,.19,.36,.37,.56,.53,.05,.05,.15,.04,.5,.13,.29-.94,.6-1.91,.89-2.87,2.17-7.26,5-14.23,8.87-20.76,2.67-4.51,5.91-8.56,9.75-12.13,2.72-2.53,5.79-4.3,9.46-5.17,3.56-.84,6.68-.16,9.64,1.83,5.58,3.74,8.31,9.15,9.14,15.66,.8,6.31-.2,12.45-1.85,18.52-2.37,8.7-6.19,16.76-11.16,24.24-3.93,5.93-8.16,11.65-12.2,17.51-3.84,5.57-7.6,11.2-11.4,16.79-.33,.49-.69,.97-1.03,1.44Z" style="fill: #f4e1ec; fill-opacity: 1;"></path><path class="cls-1" d="M183.71,302.78c-.29,.8-.54,1.61-.86,2.39-8.62,21.03-19.93,40.44-34.73,57.74-2.75,3.22-5.77,6.24-8.93,9.06-1.57,1.4-3.62,2.46-5.64,3.09-3.96,1.24-7.09-1.29-7.18-5.44-.07-3.13,.78-6.07,2.51-8.61,2.63-3.87,5.31-7.73,8.29-11.32,11.78-14.17,24.86-27.11,38.43-39.55,2.67-2.45,5.19-5.05,7.78-7.58,.11,.08,.21,.16,.32,.24Z" style="fill: #f4e1ec; fill-opacity: 1;"></path><path class="cls-1" d="M316.35,240.45c0,1.95,.07,3.31-.01,4.66-.88,14.05-3.7,27.66-9.38,40.61-2.95,6.72-6.59,13.03-11.69,18.35-2.38,2.49-5.12,4.67-7.89,6.73-1.34,1-3.09,1.59-4.74,2-2.23,.55-3.15-.17-3.26-2.42-.08-1.71,.05-3.48,.36-5.17,.88-4.81,2.72-9.31,4.74-13.74,4.23-9.26,9.42-17.98,14.99-26.48,4.99-7.62,10.23-15.07,15.37-22.6,.34-.5,.74-.96,1.51-1.95Z" style="fill: #f4e1ec; fill-opacity: 1;"></path><path class="cls-1" d="M132.01,240.55c2.71,3.93,4.54,8.16,5.24,12.81,.25,1.69,.43,3.45,.26,5.14-.24,2.34-2.35,3.15-4.1,1.58-.91-.82-1.68-2.03-2.02-3.2-1.58-5.45-1.13-10.88,.62-16.33Z" style="fill: #f4e1ec; fill-opacity: 1;"></path></svg> <svg y="328.3799987030029" viewBox="2.7200000286102295 10.960000038146973 203.24000549316406 37.76000213623047" x="185.87999969482422" height="37.76000213623047" width="203.24000549316406" style="overflow: visible;"><g fill="#953769" fill-opacity="1" style=""><path d="M8.96 40L2.72 40L2.72 11.76L7.20 11.76L18.32 29.08L16.04 29.08L27.12 11.76L31.64 11.76L31.64 40L25.36 40L25.36 22.36L26.48 22.64L19.24 33.92L15.08 33.92L7.88 22.64L8.96 22.36L8.96 40ZM44.60 40.40L44.60 40.40Q41.92 40.40 39.82 39.08Q37.72 37.76 36.50 35.48Q35.28 33.20 35.28 30.28L35.28 30.28Q35.28 27.36 36.50 25.08Q37.72 22.80 39.82 21.48Q41.92 20.16 44.60 20.16L44.60 20.16Q46.56 20.16 48.14 20.92Q49.72 21.68 50.72 23.02Q51.72 24.36 51.84 26.08L51.84 26.08L51.84 34.48Q51.72 36.20 50.74 37.54Q49.76 38.88 48.16 39.64Q46.56 40.40 44.60 40.40ZM45.84 34.88L45.84 34.88Q47.80 34.88 49 33.58Q50.20 32.28 50.20 30.28L50.20 30.28Q50.20 28.92 49.66 27.88Q49.12 26.84 48.14 26.26Q47.16 25.68 45.88 25.68L45.88 25.68Q44.60 25.68 43.62 26.26Q42.64 26.84 42.06 27.88Q41.48 28.92 41.48 30.28L41.48 30.28Q41.48 31.60 42.04 32.64Q42.60 33.68 43.60 34.28Q44.60 34.88 45.84 34.88ZM55.96 40L49.96 40L49.96 34.76L50.88 30.04L49.96 25.32L49.96 20.56L55.96 20.56L55.96 40ZM68.52 48.72L68.52 48.72Q65.32 48.72 62.90 47.62Q60.48 46.52 59.08 44.52L59.08 44.52L62.84 40.76Q63.88 42 65.18 42.64Q66.48 43.28 68.32 43.28L68.32 43.28Q70.60 43.28 71.90 42.16Q73.20 41.04 73.20 39L73.20 39L73.20 34.04L74.24 29.80L73.32 25.56L73.32 20.56L79.32 20.56L79.32 38.84Q79.32 41.84 77.92 44.04Q76.52 46.24 74.08 47.48Q71.64 48.72 68.52 48.72ZM68.24 39.40L68.24 39.40Q65.56 39.40 63.48 38.12Q61.40 36.84 60.20 34.64Q59.00 32.44 59.00 29.76L59.00 29.76Q59.00 27.04 60.20 24.86Q61.40 22.68 63.48 21.42Q65.56 20.16 68.24 20.16L68.24 20.16Q70.24 20.16 71.82 20.90Q73.40 21.64 74.38 22.98Q75.36 24.32 75.48 26.08L75.48 26.08L75.48 33.48Q75.36 35.20 74.38 36.54Q73.40 37.88 71.80 38.64Q70.20 39.40 68.24 39.40ZM69.40 33.96L69.40 33.96Q70.68 33.96 71.62 33.40Q72.56 32.84 73.06 31.90Q73.56 30.96 73.56 29.76L73.56 29.76Q73.56 28.56 73.06 27.60Q72.56 26.64 71.62 26.08Q70.68 25.52 69.40 25.52L69.40 25.52Q68.16 25.52 67.20 26.08Q66.24 26.64 65.72 27.60Q65.20 28.56 65.20 29.76L65.20 29.76Q65.20 30.88 65.72 31.86Q66.24 32.84 67.18 33.40Q68.12 33.96 69.40 33.96ZM91.92 40.40L91.92 40.40Q89.16 40.40 87.02 39.08Q84.88 37.76 83.66 35.48Q82.44 33.20 82.44 30.28L82.44 30.28Q82.44 27.36 83.66 25.08Q84.88 22.80 87.02 21.48Q89.16 20.16 91.92 20.16L91.92 20.16Q93.92 20.16 95.54 20.92Q97.16 21.68 98.22 23.02Q99.28 24.36 99.40 26.08L99.40 26.08L99.40 34.28Q99.28 36 98.24 37.38Q97.20 38.76 95.56 39.58Q93.92 40.40 91.92 40.40ZM93 34.88L93 34.88Q94.32 34.88 95.28 34.30Q96.24 33.72 96.80 32.68Q97.36 31.64 97.36 30.28L97.36 30.28Q97.36 28.92 96.82 27.90Q96.28 26.88 95.30 26.28Q94.32 25.68 93.04 25.68L93.04 25.68Q91.76 25.68 90.78 26.28Q89.80 26.88 89.22 27.92Q88.64 28.96 88.64 30.28L88.64 30.28Q88.64 31.60 89.20 32.64Q89.76 33.68 90.76 34.28Q91.76 34.88 93 34.88ZM103.12 10.96L103.12 40L97.12 40L97.12 34.76L98.04 30.04L97 25.32L97 10.96L103.12 10.96ZM115.56 40.40L115.56 40.40Q112.88 40.40 110.78 39.08Q108.68 37.76 107.46 35.48Q106.24 33.20 106.24 30.28L106.24 30.28Q106.24 27.36 107.46 25.08Q108.68 22.80 110.78 21.48Q112.88 20.16 115.56 20.16L115.56 20.16Q117.52 20.16 119.10 20.92Q120.68 21.68 121.68 23.02Q122.68 24.36 122.80 26.08L122.80 26.08L122.80 34.48Q122.68 36.20 121.70 37.54Q120.72 38.88 119.12 39.64Q117.52 40.40 115.56 40.40ZM116.80 34.88L116.80 34.88Q118.76 34.88 119.96 33.58Q121.16 32.28 121.16 30.28L121.16 30.28Q121.16 28.92 120.62 27.88Q120.08 26.84 119.10 26.26Q118.12 25.68 116.84 25.68L116.84 25.68Q115.56 25.68 114.58 26.26Q113.60 26.84 113.02 27.88Q112.44 28.92 112.44 30.28L112.44 30.28Q112.44 31.60 113 32.64Q113.56 33.68 114.56 34.28Q115.56 34.88 116.80 34.88ZM126.92 40L120.92 40L120.92 34.76L121.84 30.04L120.92 25.32L120.92 20.56L126.92 20.56L126.92 40ZM137.36 40L131.24 40L131.24 10.96L137.36 10.96L137.36 40ZM151.28 40.44L151.28 40.44Q148.12 40.44 145.66 39.14Q143.20 37.84 141.80 35.52Q140.40 33.20 140.40 30.28L140.40 30.28Q140.40 27.36 141.78 25.06Q143.16 22.76 145.52 21.44Q147.88 20.12 150.84 20.12L150.84 20.12Q153.72 20.12 155.92 21.36Q158.12 22.60 159.38 24.80Q160.64 27 160.64 29.84L160.64 29.84Q160.64 30.36 160.58 30.94Q160.52 31.52 160.36 32.28L160.36 32.28L143.60 32.32L143.60 28.12L157.76 28.08L155.12 29.84Q155.08 28.16 154.60 27.06Q154.12 25.96 153.18 25.38Q152.24 24.80 150.88 24.80L150.88 24.80Q149.44 24.80 148.38 25.46Q147.32 26.12 146.74 27.32Q146.16 28.52 146.16 30.24L146.16 30.24Q146.16 31.96 146.78 33.18Q147.40 34.40 148.54 35.06Q149.68 35.72 151.24 35.72L151.24 35.72Q152.68 35.72 153.84 35.22Q155 34.72 155.88 33.72L155.88 33.72L159.24 37.08Q157.80 38.76 155.76 39.60Q153.72 40.44 151.28 40.44ZM182.56 40L176.44 40L176.44 28.92Q176.44 27.40 175.50 26.46Q174.56 25.52 173.12 25.52L173.12 25.52Q172.12 25.52 171.36 25.94Q170.60 26.36 170.16 27.14Q169.72 27.92 169.72 28.92L169.72 28.92L167.36 27.76Q167.36 25.48 168.36 23.76Q169.36 22.04 171.14 21.10Q172.92 20.16 175.16 20.16L175.16 20.16Q177.32 20.16 178.98 21.18Q180.64 22.20 181.60 23.88Q182.56 25.56 182.56 27.56L182.56 27.56L182.56 40ZM169.72 40L163.60 40L163.60 20.56L169.72 20.56L169.72 40ZM194.60 40.40L194.60 40.40Q191.92 40.40 189.82 39.08Q187.72 37.76 186.50 35.48Q185.28 33.20 185.28 30.28L185.28 30.28Q185.28 27.36 186.50 25.08Q187.72 22.80 189.82 21.48Q191.92 20.16 194.60 20.16L194.60 20.16Q196.56 20.16 198.14 20.92Q199.72 21.68 200.72 23.02Q201.72 24.36 201.84 26.08L201.84 26.08L201.84 34.48Q201.72 36.20 200.74 37.54Q199.76 38.88 198.16 39.64Q196.56 40.40 194.60 40.40ZM195.84 34.88L195.84 34.88Q197.80 34.88 199 33.58Q200.20 32.28 200.20 30.28L200.20 30.28Q200.20 28.92 199.66 27.88Q199.12 26.84 198.14 26.26Q197.16 25.68 195.88 25.68L195.88 25.68Q194.60 25.68 193.62 26.26Q192.64 26.84 192.06 27.88Q191.48 28.92 191.48 30.28L191.48 30.28Q191.48 31.60 192.04 32.64Q192.60 33.68 193.60 34.28Q194.60 34.88 195.84 34.88ZM205.96 40L199.96 40L199.96 34.76L200.88 30.04L199.96 25.32L199.96 20.56L205.96 20.56L205.96 40Z" transform="translate(0, 0)"></path></g></svg></svg>