<svg width="32" height="32" viewBox="0 0 32 32" fill="none" xmlns="http://www.w3.org/2000/svg">
<path fill-rule="evenodd" clip-rule="evenodd" d="M14.4747 17.5254C12.9147 15.9654 11.7387 14.2187 10.9573 12.4467C10.792 12.072 10.8893 11.6334 11.1787 11.344L12.2707 10.2534C13.1653 9.3587 13.1653 8.09337 12.384 7.31203L10.8187 5.7467C9.77732 4.70536 8.08932 4.70536 7.04799 5.7467L6.17866 6.61603C5.19066 7.60403 4.77866 9.02936 5.04532 10.4427C5.70399 13.9267 7.72799 17.7414 10.9933 21.0067C14.2587 24.272 18.0733 26.296 21.5573 26.9547C22.9707 27.2214 24.396 26.8094 25.384 25.8214L26.252 24.9534C27.2933 23.912 27.2933 22.224 26.252 21.1827L24.688 19.6187C23.9067 18.8374 22.64 18.8374 21.86 19.6187L20.656 20.824C20.3667 21.1134 19.928 21.2107 19.5533 21.0454C17.7813 20.2627 16.0347 19.0854 14.4747 17.5254Z" stroke="#8E7AB5" stroke-width="1.5" stroke-linecap="round" stroke-linejoin="round"/>
</svg>
