<svg width="24" height="25" viewBox="0 0 24 25" fill="none" xmlns="http://www.w3.org/2000/svg">
<path d="M20.4491 20.9495H16.8931V15.3805C16.8931 14.0525 16.8694 12.343 15.0436 12.343C13.1915 12.343 12.9081 13.7899 12.9081 15.2838V20.9492H9.35204V9.49694H12.7658V11.062H12.8136C13.5097 9.8718 14.804 9.16093 16.1819 9.21208C19.7861 9.21208 20.4506 11.5828 20.4506 14.667L20.4491 20.9495ZM5.33963 7.9315C4.19992 7.93171 3.27584 7.00794 3.27564 5.86821C3.27544 4.72848 4.19918 3.80438 5.33889 3.80417C6.4786 3.80397 7.40268 4.72774 7.40288 5.86747C7.40298 6.41478 7.18566 6.93973 6.79872 7.32681C6.41179 7.71389 5.88694 7.9314 5.33963 7.9315ZM7.11765 20.9495H3.5579V9.49694H7.11765V20.9495ZM22.222 0.50179H1.77099C0.804431 0.490882 0.0117963 1.26513 0 2.2317V22.768C0.0113924 23.735 0.803963 24.51 1.77099 24.4999H22.222C23.1909 24.5119 23.9866 23.7369 24 22.768V2.23022C23.9862 1.26174 23.1904 0.487535 22.222 0.500152" fill="#8E7AB5"/>
</svg>
