<svg width="24" height="25" viewBox="0 0 24 25" fill="none" xmlns="http://www.w3.org/2000/svg">
<g clip-path="url(#clip0_1_214)">
<path d="M12 0.59375C18.6274 0.59375 24 5.96633 24 12.5938C24 18.5833 19.6118 23.5477 13.875 24.448V16.0625H16.6711L17.2031 12.5938H13.875V10.3427C13.875 9.39376 14.3399 8.46875 15.8306 8.46875H17.3438V5.51563C17.3438 5.51563 15.9705 5.28125 14.6576 5.28125C11.9165 5.28125 10.125 6.9425 10.125 9.95V12.5938H7.07812V16.0625H10.125V24.448C4.38823 23.5477 0 18.5833 0 12.5938C0 5.96633 5.37258 0.59375 12 0.59375Z" fill="#8E7AB5"/>
</g>
<defs>
<clipPath id="clip0_1_214">
<rect width="24" height="24" fill="white" transform="translate(0 0.5)"/>
</clipPath>
</defs>
</svg>
