<svg width="24" height="25" viewBox="0 0 24 25" fill="none" xmlns="http://www.w3.org/2000/svg">
<path fill-rule="evenodd" clip-rule="evenodd" d="M5.83784 12.5C5.83784 9.09671 8.59671 6.33784 12 6.33784C15.4033 6.33784 18.1622 9.09671 18.1622 12.5C18.1622 15.9033 15.4033 18.6622 12 18.6622C8.59671 18.6622 5.83784 15.9033 5.83784 12.5ZM12 16.5C9.79085 16.5 8 14.7092 8 12.5C8 10.2909 9.79085 8.5 12 8.5C14.2091 8.5 16 10.2909 16 12.5C16 14.7092 14.2091 16.5 12 16.5Z" fill="#8E7AB5"/>
<path fill-rule="evenodd" clip-rule="evenodd" d="M5.83784 12.5C5.83784 9.09671 8.59671 6.33784 12 6.33784C15.4033 6.33784 18.1622 9.09671 18.1622 12.5C18.1622 15.9033 15.4033 18.6622 12 18.6622C8.59671 18.6622 5.83784 15.9033 5.83784 12.5ZM12 16.5C9.79085 16.5 8 14.7092 8 12.5C8 10.2909 9.79085 8.5 12 8.5C14.2091 8.5 16 10.2909 16 12.5C16 14.7092 14.2091 16.5 12 16.5Z" fill="#8E7AB5"/>
<path d="M18.4056 7.53436C19.2009 7.53436 19.8456 6.88968 19.8456 6.09438C19.8456 5.29909 19.2009 4.65436 18.4056 4.65436C17.6104 4.65436 16.9656 5.29909 16.9656 6.09438C16.9656 6.88968 17.6104 7.53436 18.4056 7.53436Z" fill="#8E7AB5"/>
<path d="M18.4056 7.53436C19.2009 7.53436 19.8456 6.88968 19.8456 6.09438C19.8456 5.29909 19.2009 4.65436 18.4056 4.65436C17.6104 4.65436 16.9656 5.29909 16.9656 6.09438C16.9656 6.88968 17.6104 7.53436 18.4056 7.53436Z" fill="#8E7AB5"/>
<path fill-rule="evenodd" clip-rule="evenodd" d="M12 0.5C8.741 0.5 8.33234 0.513814 7.05242 0.572213C5.77516 0.63047 4.90283 0.833343 4.13954 1.13001C3.35044 1.43663 2.68123 1.84695 2.01406 2.51406C1.34695 3.18123 0.936629 3.85044 0.630008 4.63954C0.333343 5.40283 0.13047 6.27516 0.0722133 7.55242C0.0138139 8.83234 0 9.241 0 12.5C0 15.759 0.0138139 16.1677 0.0722133 17.4476C0.13047 18.7248 0.333343 19.5972 0.630008 20.3605C0.936629 21.1496 1.34695 21.8188 2.01406 22.4859C2.68123 23.1531 3.35044 23.5634 4.13954 23.87C4.90283 24.1667 5.77516 24.3695 7.05242 24.4278C8.33234 24.4862 8.741 24.5 12 24.5C15.259 24.5 15.6677 24.4862 16.9476 24.4278C18.2248 24.3695 19.0972 24.1667 19.8605 23.87C20.6496 23.5634 21.3188 23.1531 21.9859 22.4859C22.6531 21.8188 23.0634 21.1496 23.37 20.3605C23.6667 19.5972 23.8695 18.7248 23.9278 17.4476C23.9862 16.1677 24 15.759 24 12.5C24 9.241 23.9862 8.83234 23.9278 7.55242C23.8695 6.27516 23.6667 5.40283 23.37 4.63954C23.0634 3.85044 22.6531 3.18123 21.9859 2.51406C21.3188 1.84695 20.6496 1.43663 19.8605 1.13001C19.0972 0.833343 18.2248 0.63047 16.9476 0.572213C15.6677 0.513814 15.259 0.5 12 0.5ZM12 2.66216C15.2041 2.66216 15.5837 2.6744 16.849 2.73213C18.019 2.78548 18.6544 2.98097 19.0773 3.14531C19.6374 3.363 20.0371 3.62303 20.457 4.04297C20.877 4.46287 21.137 4.86261 21.3547 5.42274C21.519 5.84559 21.7145 6.48098 21.7679 7.65097C21.8256 8.91632 21.8378 9.29587 21.8378 12.5C21.8378 15.7041 21.8256 16.0837 21.7679 17.349C21.7145 18.519 21.519 19.1544 21.3547 19.5773C21.137 20.1374 20.877 20.5371 20.457 20.957C20.0371 21.377 19.6374 21.637 19.0773 21.8547C18.6544 22.019 18.019 22.2145 16.849 22.2679C15.5839 22.3256 15.2044 22.3378 12 22.3378C8.79564 22.3378 8.41618 22.3256 7.15097 22.2679C5.98098 22.2145 5.34559 22.019 4.92275 21.8547C4.36262 21.637 3.96287 21.377 3.54298 20.957C3.12308 20.5371 2.863 20.1374 2.64531 19.5773C2.48098 19.1544 2.28549 18.519 2.23214 17.349C2.1744 16.0837 2.16216 15.7041 2.16216 12.5C2.16216 9.29587 2.1744 8.91632 2.23214 7.65097C2.28549 6.48098 2.48098 5.84559 2.64531 5.42274C2.863 4.86261 3.12304 4.46287 3.54298 4.04297C3.96287 3.62303 4.36262 3.363 4.92275 3.14531C5.34559 2.98097 5.98098 2.78548 7.15097 2.73213C8.41632 2.6744 8.79587 2.66216 12 2.66216Z" fill="#8E7AB5"/>
<path fill-rule="evenodd" clip-rule="evenodd" d="M12 0.5C8.741 0.5 8.33234 0.513814 7.05242 0.572213C5.77516 0.63047 4.90283 0.833343 4.13954 1.13001C3.35044 1.43663 2.68123 1.84695 2.01406 2.51406C1.34695 3.18123 0.936629 3.85044 0.630008 4.63954C0.333343 5.40283 0.13047 6.27516 0.0722133 7.55242C0.0138139 8.83234 0 9.241 0 12.5C0 15.759 0.0138139 16.1677 0.0722133 17.4476C0.13047 18.7248 0.333343 19.5972 0.630008 20.3605C0.936629 21.1496 1.34695 21.8188 2.01406 22.4859C2.68123 23.1531 3.35044 23.5634 4.13954 23.87C4.90283 24.1667 5.77516 24.3695 7.05242 24.4278C8.33234 24.4862 8.741 24.5 12 24.5C15.259 24.5 15.6677 24.4862 16.9476 24.4278C18.2248 24.3695 19.0972 24.1667 19.8605 23.87C20.6496 23.5634 21.3188 23.1531 21.9859 22.4859C22.6531 21.8188 23.0634 21.1496 23.37 20.3605C23.6667 19.5972 23.8695 18.7248 23.9278 17.4476C23.9862 16.1677 24 15.759 24 12.5C24 9.241 23.9862 8.83234 23.9278 7.55242C23.8695 6.27516 23.6667 5.40283 23.37 4.63954C23.0634 3.85044 22.6531 3.18123 21.9859 2.51406C21.3188 1.84695 20.6496 1.43663 19.8605 1.13001C19.0972 0.833343 18.2248 0.63047 16.9476 0.572213C15.6677 0.513814 15.259 0.5 12 0.5ZM12 2.66216C15.2041 2.66216 15.5837 2.6744 16.849 2.73213C18.019 2.78548 18.6544 2.98097 19.0773 3.14531C19.6374 3.363 20.0371 3.62303 20.457 4.04297C20.877 4.46287 21.137 4.86261 21.3547 5.42274C21.519 5.84559 21.7145 6.48098 21.7679 7.65097C21.8256 8.91632 21.8378 9.29587 21.8378 12.5C21.8378 15.7041 21.8256 16.0837 21.7679 17.349C21.7145 18.519 21.519 19.1544 21.3547 19.5773C21.137 20.1374 20.877 20.5371 20.457 20.957C20.0371 21.377 19.6374 21.637 19.0773 21.8547C18.6544 22.019 18.019 22.2145 16.849 22.2679C15.5839 22.3256 15.2044 22.3378 12 22.3378C8.79564 22.3378 8.41618 22.3256 7.15097 22.2679C5.98098 22.2145 5.34559 22.019 4.92275 21.8547C4.36262 21.637 3.96287 21.377 3.54298 20.957C3.12308 20.5371 2.863 20.1374 2.64531 19.5773C2.48098 19.1544 2.28549 18.519 2.23214 17.349C2.1744 16.0837 2.16216 15.7041 2.16216 12.5C2.16216 9.29587 2.1744 8.91632 2.23214 7.65097C2.28549 6.48098 2.48098 5.84559 2.64531 5.42274C2.863 4.86261 3.12304 4.46287 3.54298 4.04297C3.96287 3.62303 4.36262 3.363 4.92275 3.14531C5.34559 2.98097 5.98098 2.78548 7.15097 2.73213C8.41632 2.6744 8.79587 2.66216 12 2.66216Z" fill="#8E7AB5"/>
</svg>
