<svg width="24" height="25" viewBox="0 0 24 25" fill="none" xmlns="http://www.w3.org/2000/svg">
<path fill-rule="evenodd" clip-rule="evenodd" d="M21.3767 4.61077C22.4093 4.88676 23.2224 5.70009 23.4984 6.73251C24 8.60435 24 12.5092 24 12.5092C24 12.5092 24 16.4143 23.4984 18.2859C23.2224 19.3184 22.4093 20.1319 21.3767 20.4077C19.505 20.9093 11.9999 20.9093 11.9999 20.9093C11.9999 20.9093 4.49498 20.9093 2.62334 20.4077C1.59071 20.1319 0.777577 19.3184 0.501593 18.2859C0 16.4143 0 12.5092 0 12.5092C0 12.5092 0 8.60435 0.501593 6.73251C0.777577 5.70009 1.59071 4.88676 2.62334 4.61077C4.49498 4.10938 11.9999 4.10938 11.9999 4.10938C11.9999 4.10938 19.505 4.10938 21.3767 4.61077ZM15.8351 12.5094L9.60001 16.1093V8.90918L15.8351 12.5094Z" fill="#8E7AB5"/>
</svg>
