<svg width="24" height="25" viewBox="0 0 24 25" fill="none" xmlns="http://www.w3.org/2000/svg">
<path d="M21.543 7.49458C21.5576 7.71156 21.5576 7.92855 21.5576 8.14754C21.5576 14.8201 16.6045 22.5156 7.54759 22.5156V22.5116C4.87215 22.5156 2.25229 21.7297 0 20.2478C0.389031 20.2958 0.780012 20.3198 1.17197 20.3208C3.38915 20.3228 5.54296 19.5598 7.28726 18.1549C5.18026 18.1139 3.3326 16.705 2.68714 14.6481C3.42523 14.7941 4.18574 14.7641 4.91018 14.5611C2.61304 14.0852 0.96039 12.0153 0.96039 9.61144C0.96039 9.58945 0.96039 9.56845 0.96039 9.54745C1.64485 9.93842 2.41121 10.1554 3.19512 10.1794C1.03157 8.6965 0.364656 5.74469 1.67118 3.43683C4.17111 6.59163 7.8596 8.50951 11.8191 8.7125C11.4223 6.95861 11.9644 5.12073 13.2436 3.8878C15.2268 1.97592 18.3459 2.07391 20.2101 4.10679C21.3129 3.8838 22.3698 3.46883 23.337 2.88086C22.9694 4.04979 22.2001 5.04273 21.1725 5.67369C22.1484 5.5557 23.102 5.28771 24 4.87874C23.3389 5.89468 22.5063 6.77962 21.543 7.49458Z" fill="#8E7AB5"/>
</svg>
